<svg width="27" height="17" viewBox="0 0 27 17" fill="none" xmlns="http://www.w3.org/2000/svg">
<path d="M0.3975 9.608C0.3975 8.15733 0.7815 6.728 1.5495 5.32C2.36017 3.912 3.38417 2.73866 4.6215 1.8C5.9015 0.818666 7.2455 0.327999 8.6535 0.327999C9.12283 0.327999 9.6135 0.519999 10.1255 0.903999C10.6802 1.288 10.9575 1.94933 10.9575 2.888C10.9575 3.82666 10.6375 4.40266 9.9975 4.616C9.40017 4.82933 8.88817 5.04266 8.4615 5.256C7.90683 5.55466 7.45883 5.91733 7.1175 6.344C6.81883 6.728 6.6695 7.21866 6.6695 7.816C6.6695 8.24266 6.88283 8.648 7.3095 9.032C7.77883 9.416 8.37617 9.608 9.1015 9.608C9.3575 9.608 9.65617 9.58666 9.9975 9.544C10.3388 9.45866 10.6375 9.33066 10.8935 9.16C11.3628 9.33066 11.7468 9.58666 12.0455 9.928C12.3442 10.2693 12.4935 10.8027 12.4935 11.528C12.4935 12.8507 11.8748 14.0027 10.6375 14.984C9.44283 15.9227 8.03483 16.392 6.4135 16.392C4.57883 16.392 3.10683 15.7733 1.9975 14.536C0.930833 13.2987 0.3975 11.656 0.3975 9.608ZM14.5415 9.608C14.5415 8.15733 14.9255 6.728 15.6935 5.32C16.5042 3.912 17.5282 2.73866 18.7655 1.8C20.0455 0.818666 21.3895 0.327999 22.7975 0.327999C23.2668 0.327999 23.7575 0.519999 24.2695 0.903999C24.8242 1.288 25.1015 1.94933 25.1015 2.888C25.1015 3.82666 24.7815 4.40266 24.1415 4.616C23.5442 4.82933 23.0322 5.04266 22.6055 5.256C22.0508 5.55466 21.6028 5.91733 21.2615 6.344C20.9628 6.728 20.8135 7.21866 20.8135 7.816C20.8135 8.24266 21.0268 8.648 21.4535 9.032C21.9228 9.416 22.5202 9.608 23.2455 9.608C23.5015 9.608 23.8002 9.58666 24.1415 9.544C24.4828 9.45866 24.7815 9.33066 25.0375 9.16C25.5068 9.33066 25.8908 9.58666 26.1895 9.928C26.4882 10.2693 26.6375 10.8027 26.6375 11.528C26.6375 12.8507 26.0188 14.0027 24.7815 14.984C23.5868 15.9227 22.1788 16.392 20.5575 16.392C18.7228 16.392 17.2508 15.7733 16.1415 14.536C15.0748 13.2987 14.5415 11.656 14.5415 9.608Z" fill="#F4773D"/>
</svg>
