<svg width="20" height="17" viewBox="0 0 20 17" fill="none" xmlns="http://www.w3.org/2000/svg">
<rect x="0.624023" y="0.97345" width="18.6542" height="16" fill="#00C194"/>
<path d="M14.1162 4.36887C12.6926 5.60101 11.4881 6.77392 10.3854 8.30422C9.89906 8.97918 9.35825 9.77361 9.00474 10.5237C8.80293 10.9214 8.43913 11.5428 8.3151 12.1404C7.63677 11.5093 6.90815 10.793 6.16265 10.2319C5.63129 9.83216 4.10082 10.6472 4.72381 11.1159C5.84036 11.9558 6.76894 13.0018 7.85495 13.8791C8.3092 14.2456 9.3159 13.4496 9.55247 13.1157C10.329 12.0155 10.4352 10.6706 11.0011 9.47055C11.8652 7.63517 13.3977 6.12747 14.9108 4.81822C15.9133 3.88323 14.8779 3.71078 14.1177 4.36887" fill="white"/>
</svg>
