<svg width="101" height="101" viewBox="0 0 101 101" fill="none" xmlns="http://www.w3.org/2000/svg">
<path d="M45.9198 28.6017C43.8262 28.6017 41.8534 27.3169 41.0826 25.2425C40.093 22.5781 41.455 19.6049 44.1188 18.6147C45.41 18.1335 46.8116 18.1865 48.0614 18.7601C49.3134 19.3335 50.2672 20.3603 50.7466 21.6513C51.226 22.9415 51.1746 24.3413 50.6012 25.5933C50.0276 26.8453 49.001 27.7989 47.71 28.2785C47.1204 28.4979 46.5152 28.6017 45.9198 28.6017ZM45.9122 21.0911C45.6398 21.0911 45.3632 21.1385 45.0938 21.2387C43.8772 21.6909 43.255 23.0501 43.7072 24.2677C44.1594 25.4849 45.5184 26.1087 46.735 25.6543C47.325 25.4357 47.7942 24.9999 48.056 24.4279C48.3178 23.8561 48.3418 23.2163 48.1228 22.6263C47.77 21.6783 46.8684 21.0911 45.9122 21.0911Z" fill="white"/>
<path d="M55.3499 41.3734C54.6189 41.374 53.8901 41.216 53.2061 40.9026C51.9541 40.329 51.0005 39.3022 50.5209 38.0118C50.0415 36.7208 50.0929 35.3208 50.6663 34.0692C51.2399 32.8172 52.2667 31.8634 53.5575 31.384C54.8463 30.9046 56.2459 30.9558 57.4995 31.5294C58.7517 32.1028 59.7053 33.1296 60.1847 34.4202C60.6643 35.711 60.6129 37.1112 60.0393 38.3628C59.4659 39.6148 58.4391 40.5684 57.1485 41.048C56.5637 41.265 55.9563 41.3734 55.3499 41.3734ZM55.3543 33.8592C55.0777 33.8592 54.7999 33.909 54.5325 34.0084C53.9425 34.2278 53.4735 34.663 53.2117 35.235C52.9491 35.8068 52.9257 36.4466 53.1455 37.0366C53.3641 37.6266 53.7999 38.0956 54.3719 38.3574C54.9433 38.6194 55.5829 38.6434 56.1735 38.4236C56.7635 38.205 57.2327 37.7692 57.4945 37.1972C57.7563 36.6254 57.7799 35.9856 57.5607 35.3956C57.3419 34.8056 56.9061 34.3364 56.3343 34.0746C56.0215 33.9314 55.6885 33.8592 55.3543 33.8592Z" fill="white"/>
<path d="M43.506 40.5547C43.2064 40.5547 42.904 40.4589 42.6492 40.2605C42.0384 39.7869 41.9274 38.9079 42.4014 38.2971L56.3168 20.3653C56.7904 19.7545 57.67 19.6429 58.2802 20.1175C58.8908 20.5911 59.0018 21.4701 58.5278 22.0809L44.6124 40.0129C44.337 40.3689 43.9238 40.5547 43.506 40.5547Z" fill="white"/>
<path d="M50.6339 48.2542C40.4757 48.2542 32.2109 39.9894 32.2109 29.8312C32.2109 19.673 40.4757 11.4084 50.6339 11.4084C60.7921 11.4084 69.0563 19.673 69.0563 29.8312C69.0563 39.9894 60.7919 48.2542 50.6339 48.2542ZM50.6339 14.2078C42.0193 14.2078 35.0105 21.2166 35.0105 29.8314C35.0105 38.4462 42.0193 45.4548 50.6339 45.4548C59.2485 45.4548 66.2569 38.446 66.2569 29.8314C66.2569 21.2168 59.2485 14.2078 50.6339 14.2078Z" fill="white"/>
<path d="M50.6337 54.1274C37.2365 54.1274 26.3369 43.2282 26.3369 29.8312C26.3369 16.4342 37.2365 5.53516 50.6337 5.53516C64.0309 5.53516 74.9297 16.4342 74.9297 29.8312C74.9297 43.2282 64.0307 54.1274 50.6337 54.1274ZM50.6337 8.33456C38.7801 8.33456 29.1363 17.9784 29.1363 29.8314C29.1363 41.6846 38.7801 51.3282 50.6337 51.3282C62.4867 51.3282 72.1305 41.6846 72.1305 29.8314C72.1303 17.9782 62.4865 8.33456 50.6337 8.33456Z" fill="white"/>
<path d="M51.5967 95.5351C51.1939 95.5351 50.8105 95.3619 50.5449 95.0589L34.9415 77.2829C34.5789 76.8695 34.4917 76.2829 34.7185 75.7821C34.9453 75.2813 35.4441 74.9597 35.9935 74.9597H41.1653V56.4831C41.1653 55.7099 41.7919 55.0835 42.5651 55.0835C43.3383 55.0835 43.9649 55.7099 43.9649 56.4831V76.3593C43.9649 77.1325 43.3383 77.7589 42.5651 77.7589H39.0845L51.5969 92.0133L64.1089 77.7589H60.6281C59.8549 77.7589 59.2283 77.1325 59.2283 76.3593V56.4831C59.2283 55.7099 59.8549 55.0835 60.6281 55.0835C61.4013 55.0835 62.0279 55.7099 62.0279 56.4831V74.9597H67.1997C67.7491 74.9597 68.2477 75.2811 68.4747 75.7821C68.7017 76.2829 68.6141 76.8695 68.2515 77.2829L52.6489 95.0589C52.3831 95.3619 51.9997 95.5351 51.5967 95.5351Z" fill="white"/>
<path d="M51.5969 72.7669C50.8237 72.7669 50.1973 72.1403 50.1973 71.3671V59.8427C50.1973 59.0695 50.8237 58.4429 51.5969 58.4429C52.3701 58.4429 52.9967 59.0695 52.9967 59.8427V71.3671C52.9967 72.1403 52.3701 72.7669 51.5969 72.7669Z" fill="white"/>
<path d="M80.7797 58.857C80.0067 58.857 79.3799 58.2304 79.3799 57.4572V18.8256C79.3799 18.0524 80.0065 17.426 80.7797 17.426C81.5529 17.426 82.1795 18.0524 82.1795 18.8256V57.4572C82.1793 58.2302 81.5527 58.857 80.7797 58.857Z" fill="white"/>
<path d="M89.7377 56.0573C88.9645 56.0573 88.3379 55.4309 88.3379 54.6577V8.74794C88.3379 7.97474 88.9645 7.34814 89.7377 7.34814C90.5109 7.34814 91.1373 7.97474 91.1373 8.74794V54.6577C91.1373 55.4309 90.5109 56.0573 89.7377 56.0573Z" fill="white"/>
<path d="M20.4875 58.857C19.7143 58.857 19.0879 58.2304 19.0879 57.4572V18.8256C19.0879 18.0524 19.7143 17.426 20.4875 17.426C21.2607 17.426 21.8873 18.0524 21.8873 18.8256V57.4572C21.8873 58.2302 21.2607 58.857 20.4875 58.857Z" fill="white"/>
<path d="M11.5297 56.0573C10.7565 56.0573 10.1299 55.4309 10.1299 54.6577V8.74794C10.1299 7.97474 10.7565 7.34814 11.5297 7.34814C12.3027 7.34814 12.9293 7.97474 12.9293 8.74794V54.6577C12.9293 55.4309 12.3027 56.0573 11.5297 56.0573Z" fill="white"/>
</svg>
