<svg width="101" height="101" viewBox="0 0 101 101" fill="none" xmlns="http://www.w3.org/2000/svg">
<path d="M50.6338 65.2363C35.8994 65.2363 23.8994 53.252 23.8994 38.502C23.8994 23.7676 35.8838 11.7676 50.6338 11.7676C65.3838 11.7676 77.3682 23.752 77.3682 38.502C77.3682 53.2363 65.3682 65.2363 50.6338 65.2363ZM50.6338 14.8926C37.6182 14.8926 27.0244 25.4863 27.0244 38.502C27.0244 51.5176 37.6182 62.1113 50.6338 62.1113C63.6494 62.1113 74.2432 51.5176 74.2432 38.502C74.2432 25.4863 63.6494 14.8926 50.6338 14.8926Z" fill="white"/>
<path d="M92.4775 80.8926H8.79004C7.93066 80.8926 7.22754 80.1895 7.22754 79.3301V23.502C7.22754 20.1113 9.99316 17.3457 13.3838 17.3457H34.8369C35.6963 17.3457 36.3994 18.0488 36.3994 18.9082C36.3994 19.7676 35.6963 20.4707 34.8369 20.4707H13.3838C11.7119 20.4707 10.3525 21.8301 10.3525 23.502V77.7676H90.915V23.502C90.915 21.8301 89.5557 20.4707 87.8838 20.4707H66.4307C65.5713 20.4707 64.8682 19.7676 64.8682 18.9082C64.8682 18.0488 65.5713 17.3457 66.4307 17.3457H87.8838C91.2744 17.3457 94.04 20.1113 94.04 23.502V79.3301C94.04 80.1895 93.3369 80.8926 92.4775 80.8926Z" fill="white"/>
<path d="M88.6494 90.0176H12.6338C7.08691 90.0176 2.58691 85.2207 2.58691 79.3301C2.58691 78.4707 3.29004 77.7676 4.14941 77.7676H97.1494C98.0088 77.7676 98.7119 78.4707 98.7119 79.3301C98.6963 85.2207 94.1807 90.0176 88.6494 90.0176ZM5.85254 80.8926C6.50879 84.3145 9.30566 86.8926 12.6338 86.8926H88.6494C91.9775 86.8926 94.7744 84.3145 95.4307 80.8926H5.85254Z" fill="white"/>
<path d="M50.5402 48.3613C50.2746 48.3613 49.9933 48.3613 49.7277 48.3301C45.3996 48.0488 42.5402 45.7676 42.2589 42.3457C42.1808 41.4863 42.8214 40.7363 43.6808 40.6582C44.5402 40.5957 45.2902 41.2207 45.3683 42.0957C45.5871 44.7363 48.9152 45.1426 49.9152 45.2207C52.9777 45.4082 55.5246 44.1895 55.7902 42.9707C56.1964 41.0332 56.4777 39.7676 47.6808 37.4082C43.1496 36.1895 41.8839 33.127 42.2121 30.6582C42.6652 27.1738 46.0402 24.3457 49.7121 24.3457C56.2277 24.3457 58.1027 28.4395 58.1808 28.6113C58.5246 29.4082 58.1652 30.3301 57.3839 30.6738C56.6027 31.0176 55.6964 30.6738 55.3371 29.8926C55.2902 29.7363 54.0714 27.4551 49.7433 27.4551C47.4308 27.4551 45.5714 29.3457 45.3371 31.0488C45.0558 33.127 47.2121 34.0176 48.5089 34.377C56.5714 36.5488 59.9777 38.3926 58.8527 43.6113C58.1808 46.7832 54.2277 48.3613 50.5402 48.3613Z" fill="white"/>
<path d="M50.4775 53.4082C49.6182 53.4082 48.915 52.7051 48.915 51.8457V22.5488C48.915 21.6895 49.6182 20.9863 50.4775 20.9863C51.3369 20.9863 52.04 21.6895 52.04 22.5488V51.8457C52.04 52.7207 51.3369 53.4082 50.4775 53.4082Z" fill="white"/>
<path d="M21.5083 76.002C20.9927 76.002 20.5083 75.752 20.2115 75.3145L11.7271 62.8145C11.399 62.3301 11.3677 61.7207 11.6333 61.2051C11.899 60.6895 12.4302 60.377 13.0083 60.377H16.0396V46.0332C16.0396 45.1738 16.7427 44.4707 17.6021 44.4707C18.4615 44.4707 19.1646 45.1738 19.1646 46.0332V61.9395C19.1646 62.7988 18.4615 63.502 17.6021 63.502H15.9771L21.524 71.6582L27.0708 63.502H25.4302C25.0083 63.502 24.6177 63.3301 24.3208 63.0488C24.024 62.752 23.8677 62.3613 23.8677 61.9395L23.9458 39.7676C23.9458 38.9082 24.649 38.2051 25.5083 38.2051C26.3677 38.2051 27.0708 38.9082 27.0708 39.7676L27.0083 60.377H30.024C30.6021 60.377 31.1333 60.7051 31.399 61.2051C31.6646 61.7051 31.6333 62.3301 31.3052 62.8145L22.8208 75.3145C22.5083 75.752 22.024 76.002 21.5083 76.002Z" fill="white"/>
<path d="M79.7427 76.002C79.2271 76.002 78.7427 75.752 78.4458 75.3145L69.9614 62.8145C69.6333 62.3301 69.6021 61.7207 69.8677 61.2051C70.1333 60.6895 70.6646 60.377 71.2427 60.377H74.2583L74.1958 39.7676C74.1958 38.9082 74.8833 38.2051 75.7583 38.2051C76.6177 38.2051 77.3208 38.9082 77.3208 39.7676L77.399 61.9395C77.399 62.3613 77.2427 62.752 76.9458 63.0488C76.649 63.3457 76.2583 63.502 75.8365 63.502H74.1958L79.7427 71.6582L85.2896 63.502H83.649C82.7896 63.502 82.0865 62.7988 82.0865 61.9395V46.0332C82.0865 45.1738 82.7896 44.4707 83.649 44.4707C84.5083 44.4707 85.2115 45.1738 85.2115 46.0332V60.377H88.2427C88.8208 60.377 89.3521 60.7051 89.6177 61.2051C89.8833 61.7051 89.8521 62.3301 89.524 62.8145L81.0396 75.3145C80.7427 75.752 80.2583 76.002 79.7427 76.002Z" fill="white"/>
</svg>
