<svg width="101" height="101" viewBox="0 0 101 101" fill="none" xmlns="http://www.w3.org/2000/svg">
<path fill-rule="evenodd" clip-rule="evenodd" d="M86.4518 66.3261V76.9361C86.4518 77.6765 85.8504 78.2777 85.1102 78.2777H74.499C73.7588 78.2777 73.1574 77.6763 73.1574 76.9361C73.1574 76.1957 73.7588 75.5945 74.499 75.5945H83.7696V66.3261C83.7696 65.5845 84.3686 64.9855 85.1102 64.9855C85.8504 64.9855 86.4518 65.5847 86.4518 66.3261ZM28.0936 76.9361C28.0936 77.6765 27.4934 78.2777 26.753 78.2777H16.1418C15.4014 78.2777 14.8002 77.6763 14.8002 76.9361V66.3261C14.8002 65.5845 15.4016 64.9855 16.1418 64.9855C16.8832 64.9855 17.4824 65.5845 17.4824 66.3261V75.5945H26.753C27.4934 75.5945 28.0936 76.1959 28.0936 76.9361ZM14.8002 18.5781V7.96907C14.8002 7.22867 15.4016 6.62747 16.1418 6.62747H26.753C27.4934 6.62747 28.0936 7.22887 28.0936 7.96907C28.0936 8.70927 27.4934 9.31067 26.753 9.31067H17.4824V18.5781C17.4824 19.3207 16.8834 19.9197 16.1418 19.9197C15.4014 19.9197 14.8002 19.3205 14.8002 18.5781ZM73.1572 7.96907C73.1572 7.22867 73.7586 6.62747 74.4988 6.62747H85.11C85.8504 6.62747 86.4516 7.22887 86.4516 7.96907V18.5781C86.4516 19.3207 85.8502 19.9197 85.11 19.9197C84.3686 19.9197 83.7694 19.3207 83.7694 18.5781V9.31067H74.4988C73.7586 9.31067 73.1572 8.70947 73.1572 7.96907ZM55.8898 58.7757C55.389 58.7757 54.981 58.3677 54.981 57.8669C54.981 57.3661 55.389 56.9603 55.8898 56.9603C56.3904 56.9603 56.7962 57.3661 56.7962 57.8669C56.7962 58.3677 56.3904 58.7757 55.8898 58.7757ZM55.8898 54.2771C53.9096 54.2771 52.2978 55.8867 52.2978 57.8669C52.2978 59.8471 53.9096 61.4579 55.8898 61.4579C57.87 61.4579 59.4784 59.8473 59.4784 57.8669C59.4784 55.8867 57.87 54.2771 55.8898 54.2771ZM44.4556 47.6277C44.4556 47.1269 44.8614 46.7213 45.362 46.7213C45.8626 46.7213 46.2708 47.1271 46.2708 47.6277C46.2708 48.1283 45.8628 48.5341 45.362 48.5341C44.8614 48.5341 44.4556 48.1283 44.4556 47.6277ZM48.9532 47.6277C48.9532 45.6475 47.3426 44.0379 45.3622 44.0379C43.382 44.0379 41.7724 45.6475 41.7724 47.6277C41.7724 49.6079 43.382 51.2175 45.3622 51.2175C47.3424 51.2175 48.9532 49.6079 48.9532 47.6277ZM56.9804 46.1595C57.4122 45.5571 57.272 44.7173 56.6696 44.2865C56.066 43.8569 55.2274 43.9971 54.7978 44.5997L44.2714 59.3377C43.8408 59.9401 43.9798 60.7765 44.5822 61.2083C45.1806 61.6347 46.0186 61.5041 46.455 60.8953L56.9804 46.1595ZM84.6026 43.4999C85.829 42.2725 85.829 40.2751 84.6026 39.0465L57.7446 12.2597C53.7954 8.31947 47.373 8.32287 43.4284 12.2687L16.6494 39.0465C15.4218 40.2751 15.4218 42.2723 16.6494 43.4999C17.8736 44.7229 19.8786 44.7231 21.1028 43.4999L47.3188 17.2827C49.1406 15.4609 52.111 15.4605 53.9332 17.2827L80.1492 43.4999C81.3732 44.7239 83.3776 44.7225 84.6026 43.4999ZM74.301 60.4803V41.4461L52.0366 19.1805C51.2614 18.4053 49.9906 18.4051 49.2154 19.1805L26.9508 41.4461V60.4803C26.9508 61.8469 28.0642 62.9569 29.4296 62.9569H36.069C34.0356 60.0667 32.8386 56.5437 32.8386 52.7481C32.8386 42.9395 40.8174 34.9595 50.626 34.9595C60.4336 34.9595 68.4124 42.9393 68.4124 52.7481C68.4124 56.5437 67.2166 60.0667 65.1832 62.9569H71.8214C73.1878 62.9567 74.301 61.8469 74.301 60.4803ZM50.626 67.8521C58.9552 67.8521 65.7302 61.0761 65.7302 52.7479C65.7302 44.4187 58.9552 37.6427 50.626 37.6427C42.2968 37.6427 35.522 44.4189 35.522 52.7479C35.5218 61.0759 42.2968 67.8521 50.626 67.8521ZM54.807 79.4793H61.01L50.626 91.7407L40.242 79.4793H46.444C47.1854 79.4793 47.7856 78.8779 47.7856 78.1377V70.3081C49.676 70.6109 51.5756 70.6109 53.4664 70.3081V78.1377C53.4664 78.8781 54.0666 79.4793 54.807 79.4793ZM86.498 37.1487L59.64 10.3597C54.6452 5.37727 46.5206 5.38307 41.5316 10.3711L14.7516 37.1501C12.4786 39.4243 12.4786 43.1247 14.7516 45.3979C17.0228 47.6691 20.7286 47.6685 23.0006 45.3979L24.2688 44.1297V60.4805C24.2688 63.3255 26.5826 65.6403 29.4298 65.6403H38.3852C40.2784 67.4397 42.5674 68.8255 45.1036 69.6573V76.7973H37.3498C36.2126 76.7973 35.5892 78.1375 36.3246 79.0059L49.6034 94.6853C50.1378 95.3167 51.1164 95.3161 51.6492 94.6853L64.9268 79.0059C65.6634 78.1375 65.0404 76.7973 63.9028 76.7973H56.149V69.6573C58.6854 68.8255 60.9754 67.4397 62.8674 65.6403H71.8216C74.67 65.6403 76.9836 63.3255 76.9836 60.4805V44.1297L78.2518 45.3979C80.5256 47.6705 84.2262 47.6703 86.5006 45.3979C88.7734 43.1245 88.7734 39.4241 86.498 37.1487Z" fill="white"/>
</svg>
