<svg width="65" height="46" viewBox="0 0 65 46" fill="none" xmlns="http://www.w3.org/2000/svg">
<path d="M14.8193 0C6.99315 0 0.626953 6.3662 0.626953 14.1924C0.626953 21.7422 6.55175 27.9345 13.9961 28.3623C14.125 29.7539 14.0283 33.542 10.3984 38.8115C10.124 39.209 10.1738 39.7451 10.5146 40.0859C12 41.5713 12.918 42.5068 13.5605 43.1611C14.4014 44.0166 14.7852 44.4072 15.3467 44.917C15.5371 45.0898 15.7773 45.1767 16.0186 45.1767C16.2529 45.1767 16.4863 45.0947 16.6748 44.9316C23 39.4277 30.0264 28.0556 29.0098 14.1201C28.4141 5.9385 22.4463 0 14.8193 0ZM16.0283 42.8105C15.7559 42.542 15.4453 42.2256 14.9873 41.7597C14.4307 41.1924 13.667 40.415 12.5088 39.2529C16.9141 32.4648 16.082 27.6299 15.7178 26.9365C15.5449 26.6074 15.1904 26.3857 14.8193 26.3857C8.09665 26.3857 2.62695 20.916 2.62695 14.1924C2.62695 7.4697 8.09665 2 14.8193 2C21.3682 2 26.4971 7.1582 27.0156 14.2646C28.1582 29.9385 18.8428 40.1152 16.0283 42.8105Z" fill="white"/>
<path d="M64.5264 14.1201C63.9287 5.9395 57.96 0 50.335 0C42.5088 0 36.1416 6.3662 36.1416 14.1924C36.1416 21.7422 42.0674 27.9345 49.5127 28.3623C49.6416 29.7529 49.5439 33.539 45.9131 38.8115C45.6387 39.209 45.6885 39.7451 46.0293 40.0859C47.5088 41.5654 48.4248 42.499 49.0674 43.1523C49.9121 44.0136 50.2979 44.4062 50.8623 44.9179C51.0527 45.0898 51.2939 45.1767 51.5342 45.1767C51.7686 45.1767 52.002 45.0947 52.1904 44.9306C58.5156 39.4267 65.542 28.0547 64.5264 14.1201ZM51.5439 42.8105C51.2695 42.54 50.9561 42.2217 50.4941 41.751C49.9375 41.1845 49.1768 40.4092 48.0234 39.2529C52.4287 32.4638 51.5977 27.6299 51.2344 26.9365C51.0615 26.6084 50.7061 26.3857 50.335 26.3857C43.6113 26.3857 38.1416 20.916 38.1416 14.1924C38.1416 7.4697 43.6113 2 50.335 2C56.8828 2 62.0127 7.1582 62.5322 14.2656C63.6738 29.9375 54.3584 40.1152 51.5439 42.8105Z" fill="white"/>
</svg>
