<svg width="20" height="20" viewBox="0 0 20 20" fill="none" xmlns="http://www.w3.org/2000/svg">
<g clip-path="url(#clip0_158_2714)">
<path d="M15.8984 0H4.10156C1.83996 0 0 1.83996 0 4.10156V15.8984C0 18.16 1.83996 20 4.10156 20H15.8984C18.16 20 20 18.16 20 15.8984V4.10156C20 1.83996 18.16 0 15.8984 0ZM6.15816 15.4107C5.9775 15.7237 5.64855 15.8988 5.31078 15.8988C5.1452 15.8988 4.97754 15.8568 4.82414 15.7682C4.35781 15.499 4.19746 14.9005 4.46668 14.4342L4.65875 14.1016H6.91402L6.15816 15.4107ZM4.31641 13.3203C3.77793 13.3203 3.33984 12.8822 3.33984 12.3438C3.33984 11.8053 3.77793 11.3672 4.31641 11.3672H6.23742L8.87234 6.80336L8.15824 5.56648C7.88902 5.10016 8.04934 4.50172 8.51566 4.23246C8.98199 3.96324 9.58047 4.12363 9.84969 4.58992L10 4.85027L10.1503 4.58996C10.4196 4.12359 11.0181 3.96328 11.4843 4.2325C11.7102 4.36293 11.8718 4.57352 11.9393 4.82547C12.0068 5.07742 11.9721 5.34063 11.8417 5.56652L8.49269 11.3672H10.6052L11.7328 13.3203H4.31641ZM15.6836 13.3203H14.8902L15.5333 14.4342C15.8025 14.9005 15.6422 15.4989 15.1759 15.7682C15.0254 15.855 14.8584 15.8995 14.6891 15.8995C14.6043 15.8995 14.519 15.8883 14.4348 15.8657C14.1828 15.7982 13.9722 15.6366 13.8418 15.4107L10.451 9.53769L11.5786 7.58457L13.7626 11.3672H15.6836C16.2221 11.3672 16.6602 11.8053 16.6602 12.3438C16.6602 12.8822 16.2221 13.3203 15.6836 13.3203Z" fill="#2B8069"/>
</g>
<defs>
<clipPath id="clip0_158_2714">
<rect width="20" height="20" fill="white"/>
</clipPath>
</defs>
</svg>
