<svg width="16" height="16" viewBox="0 0 16 16" fill="none" xmlns="http://www.w3.org/2000/svg">
<path d="M14 10.8333H10C9.72667 10.8333 9.5 10.6066 9.5 10.3333C9.5 10.06 9.72667 9.83331 10 9.83331H14C14.2733 9.83331 14.5 10.06 14.5 10.3333C14.5 10.6066 14.2733 10.8333 14 10.8333Z" fill="#585858"/>
<path d="M14 13.5H10C9.72667 13.5 9.5 13.2733 9.5 13C9.5 12.7267 9.72667 12.5 10 12.5H14C14.2733 12.5 14.5 12.7267 14.5 13C14.5 13.2733 14.2733 13.5 14 13.5Z" fill="#585858"/>
<path d="M14.6667 5.67998V2.65331C14.6667 1.71331 14.24 1.33331 13.18 1.33331H10.4867C9.42667 1.33331 9 1.71331 9 2.65331V5.67331C9 6.61998 9.42667 6.99331 10.4867 6.99331H13.18C14.24 6.99998 14.6667 6.61998 14.6667 5.67998Z" fill="#585858"/>
<path d="M7.00016 5.67998V2.65331C7.00016 1.71331 6.5735 1.33331 5.5135 1.33331H2.82016C1.76016 1.33331 1.3335 1.71331 1.3335 2.65331V5.67331C1.3335 6.61998 1.76016 6.99331 2.82016 6.99331H5.5135C6.5735 6.99998 7.00016 6.61998 7.00016 5.67998Z" fill="#585858"/>
<path d="M7.00016 13.18V10.4867C7.00016 9.42667 6.5735 9 5.5135 9H2.82016C1.76016 9 1.3335 9.42667 1.3335 10.4867V13.18C1.3335 14.24 1.76016 14.6667 2.82016 14.6667H5.5135C6.5735 14.6667 7.00016 14.24 7.00016 13.18Z" fill="#585858"/>
</svg>
