<svg width="30" height="30" viewBox="0 0 30 30" fill="none" xmlns="http://www.w3.org/2000/svg">
<g clip-path="url(#clip0_124_1824)">
<path d="M30 14.8689C30 6.65615 23.2852 0 15 0C6.71484 0 0 6.65615 0 14.8689C0 23.0816 6.71484 29.7378 15 29.7378C15.0879 29.7378 15.1758 29.7378 15.2637 29.732V18.1621H12.041V14.4391H15.2637V11.6976C15.2637 8.52057 17.2207 6.78974 20.0801 6.78974C21.4512 6.78974 22.6289 6.88847 22.9688 6.93494V10.2572H21C19.4473 10.2572 19.1426 10.989 19.1426 12.0635V14.4333H22.8633L22.377 18.1563H19.1426V29.1628C25.4121 27.3797 30 21.6586 30 14.8689Z" fill="#30090D"/>
</g>
<defs>
<clipPath id="clip0_124_1824">
<rect width="30" height="29.7378" fill="white"/>
</clipPath>
</defs>
</svg>
