<svg width="20" height="20" viewBox="0 0 20 20" fill="none" xmlns="http://www.w3.org/2000/svg">
<path d="M3.83206 0.254884C3.31682 -0.0552752 2.70275 -0.0830099 2.1672 0.175196L11.1466 9.17372L14.0825 6.22408L3.83206 0.254884ZM1.34219 1.00802C1.22891 1.24786 1.16797 1.51466 1.16797 1.78927V18.2496C1.16797 18.5254 1.2293 18.7883 1.34375 19.023L10.3196 10.0046L1.34219 1.00802ZM11.1478 10.8343L2.18286 19.8418C2.42075 19.952 2.67388 20 2.92662 20C3.23873 20 3.55006 19.9254 3.8321 19.7559L14.0845 13.7777L11.1478 10.8343ZM17.9865 8.49754C17.983 8.4952 17.9791 8.49286 17.9756 8.4909L15.1295 6.83346L11.9744 10.0034L15.1314 13.1671C15.1314 13.1671 17.983 11.5046 17.9865 11.5026C18.5158 11.1812 18.8319 10.6194 18.8319 9.9999C18.8319 9.38036 18.5158 8.81864 17.9865 8.49754Z" fill="#2B8069"/>
</svg>
