<svg width="30" height="30" viewBox="0 0 30 30" fill="none" xmlns="http://www.w3.org/2000/svg">
<g clip-path="url(#clip0_124_1826)">
<path d="M17.8711 14.8685C17.8711 16.4403 16.5857 17.7145 15 17.7145C13.4143 17.7145 12.1289 16.4403 12.1289 14.8685C12.1289 13.2966 13.4143 12.0225 15 12.0225C16.5857 12.0225 17.8711 13.2966 17.8711 14.8685Z" fill="#30090D"/>
<path d="M21.7144 9.83325C21.5764 9.46253 21.3562 9.12697 21.0701 8.85154C20.7923 8.56793 20.454 8.34967 20.0797 8.21287C19.7762 8.09602 19.3203 7.95694 18.4805 7.91905C17.5721 7.87799 17.2997 7.86914 14.9999 7.86914C12.6999 7.86914 12.4275 7.87776 11.5193 7.91883C10.6796 7.95694 10.2234 8.09602 9.92014 8.21287C9.54591 8.34967 9.2074 8.56793 8.92976 8.85154C8.64366 9.12697 8.42348 9.4623 8.28523 9.83325C8.16736 10.1341 8.02705 10.5863 7.98883 11.4187C7.9474 12.319 7.93848 12.5889 7.93848 14.8689C7.93848 17.1486 7.9474 17.4186 7.98883 18.3191C8.02705 19.1515 8.16736 19.6034 8.28523 19.9043C8.42348 20.2752 8.64343 20.6106 8.92953 20.886C9.2074 21.1696 9.54568 21.3878 9.91991 21.5247C10.2234 21.6417 10.6796 21.7808 11.5193 21.8187C12.4275 21.8598 12.6997 21.8684 14.9997 21.8684C17.3 21.8684 17.5723 21.8598 18.4803 21.8187C19.3201 21.7808 19.7762 21.6417 20.0797 21.5247C20.8309 21.2374 21.4247 20.6489 21.7144 19.9043C21.8323 19.6034 21.9726 19.1515 22.011 18.3191C22.0525 17.4186 22.0612 17.1486 22.0612 14.8689C22.0612 12.5889 22.0525 12.319 22.011 11.4187C21.9728 10.5863 21.8325 10.1341 21.7144 9.83325ZM14.9999 19.2529C12.5571 19.2529 10.5768 17.2902 10.5768 14.8686C10.5768 12.4471 12.5571 10.4844 14.9999 10.4844C17.4426 10.4844 19.4229 12.4471 19.4229 14.8686C19.4229 17.2902 17.4426 19.2529 14.9999 19.2529ZM19.5977 11.3357C19.0269 11.3357 18.5641 10.8769 18.5641 10.3111C18.5641 9.74522 19.0269 9.28647 19.5977 9.28647C20.1685 9.28647 20.6313 9.74522 20.6313 10.3111C20.6311 10.8769 20.1685 11.3357 19.5977 11.3357Z" fill="#30090D"/>
<path d="M15 0C6.717 0 0 6.65828 0 14.8689C0 23.0795 6.717 29.7378 15 29.7378C23.283 29.7378 30 23.0795 30 14.8689C30 6.65828 23.283 0 15 0ZM23.5613 18.3889C23.5197 19.2978 23.3739 19.9183 23.161 20.4615C22.7135 21.6084 21.7989 22.515 20.6419 22.9586C20.0942 23.1696 19.468 23.3139 18.5513 23.3554C17.6328 23.3969 17.3394 23.4069 15.0002 23.4069C12.6608 23.4069 12.3676 23.3969 11.4489 23.3554C10.5322 23.3139 9.90601 23.1696 9.35829 22.9586C8.78334 22.7442 8.26286 22.4081 7.83257 21.9737C7.39449 21.5474 7.05551 21.0312 6.83922 20.4615C6.62636 19.9186 6.48056 19.2978 6.4389 18.3892C6.39656 17.4785 6.38672 17.1876 6.38672 14.8689C6.38672 12.5502 6.39656 12.2593 6.43867 11.3488C6.48033 10.4399 6.6259 9.81942 6.83876 9.27626C7.05505 8.70656 7.39426 8.19041 7.83257 7.7641C8.26263 7.32962 8.78334 6.99361 9.35806 6.77921C9.90601 6.56821 10.532 6.42391 11.4489 6.38239C12.3674 6.34087 12.6608 6.33089 15 6.33089C17.3392 6.33089 17.6326 6.34087 18.5511 6.38262C19.468 6.42391 20.094 6.56821 20.6419 6.77898C21.2167 6.99338 21.7374 7.32962 22.1677 7.7641C22.6057 8.19064 22.9449 8.70656 23.161 9.27626C23.3741 9.81942 23.5197 10.4399 23.5616 11.3488C23.6034 12.2593 23.6133 12.5502 23.6133 14.8689C23.6133 17.1876 23.6034 17.4785 23.5613 18.3889Z" fill="#30090D"/>
</g>
<defs>
<clipPath id="clip0_124_1826">
<rect width="30" height="29.7378" fill="white"/>
</clipPath>
</defs>
</svg>
