<svg width="30" height="30" viewBox="0 0 30 30" fill="none" xmlns="http://www.w3.org/2000/svg">
<g clip-path="url(#clip0_124_1832)">
<path d="M15 0C6.717 0 0 6.65828 0 14.8689C0 23.0795 6.717 29.7378 15 29.7378C23.283 29.7378 30 23.0795 30 14.8689C30 6.65828 23.283 0 15 0ZM10.6412 22.4776H6.98799V11.583H10.6412V22.4776ZM8.8147 10.0953H8.79089C7.565 10.0953 6.77216 9.25879 6.77216 8.21332C6.77216 7.14426 7.58926 6.33089 8.83896 6.33089C10.0887 6.33089 10.8577 7.14426 10.8815 8.21332C10.8815 9.25879 10.0887 10.0953 8.8147 10.0953ZM23.8138 22.4776H20.1611V16.6492C20.1611 15.1845 19.6321 14.1855 18.3103 14.1855C17.3012 14.1855 16.7001 14.8594 16.436 15.5098C16.3394 15.7426 16.3158 16.0679 16.3158 16.3935V22.4776H12.6629C12.6629 22.4776 12.7107 12.6051 12.6629 11.583H16.3158V13.1255C16.8013 12.3832 17.6699 11.3273 19.6081 11.3273C22.0116 11.3273 23.8138 12.8844 23.8138 16.2306V22.4776Z" fill="#30090D"/>
</g>
<defs>
<clipPath id="clip0_124_1832">
<rect width="30" height="29.7378" fill="white"/>
</clipPath>
</defs>
</svg>
