<svg width="30" height="30" viewBox="0 0 30 30" fill="none" xmlns="http://www.w3.org/2000/svg">
<g clip-path="url(#clip0_195_4172)">
<path d="M27.3633 15.879H24.2594L21.0047 10.997C20.8417 10.7525 20.5673 10.6056 20.2734 10.6056H19.3945V8.84766H20.2734C20.7588 8.84766 21.1523 8.45414 21.1523 7.96875C21.1523 7.48336 20.7588 7.08984 20.2734 7.08984H17.6367V4.45312C17.6367 3.96773 17.2432 3.57422 16.7578 3.57422C16.1648 3.57422 6.73752 3.57422 6.15234 3.57422C5.66695 3.57422 5.27344 3.96773 5.27344 4.45312V7.08984H2.63672C2.15133 7.08984 1.75781 7.48336 1.75781 7.96875C1.75781 8.45414 2.15133 8.84766 2.63672 8.84766H3.51562V10.6056H2.63672C2.25844 10.6056 1.92258 10.8476 1.80293 11.2065L0.0451172 16.48C0.0188672 16.558 0 16.6646 0 16.7579V23.7892C0 24.2746 0.393516 24.6681 0.878906 24.6675H5.42467C5.78748 25.691 6.76441 26.4258 7.91016 26.4258C9.0559 26.4258 10.0328 25.691 10.3956 24.6675H19.5458C19.9086 25.691 20.8855 26.4258 22.0312 26.4258C23.177 26.4258 24.1539 25.691 24.5167 24.6675H29.1211C29.6065 24.6681 30 24.2746 30 23.7892V18.5157C30 17.0619 28.8172 15.879 27.3633 15.879ZM22.1469 15.879H14.1211C14.1211 14.8087 14.1211 13.4025 14.1211 12.3628L19.8031 12.3634L22.1469 15.879ZM7.3718 15.879L8.54367 12.3628H12.3633V15.879H7.3718ZM15.8789 7.08984H12.3633V5.33203H15.8789V7.08984ZM7.03125 5.33203H10.6055V7.08984H7.03125V5.33203ZM5.27344 8.84766H17.6367V10.6056C15.7051 10.6056 6.52705 10.6056 5.27344 10.6056V8.84766ZM3.27023 12.3634L6.69076 12.3628L5.51889 15.879H2.09836L3.27023 12.3634ZM7.91016 24.668C7.42553 24.668 7.03125 24.2737 7.03125 23.7891C7.03125 23.3044 7.42553 22.9102 7.91016 22.9102C8.39478 22.9102 8.78906 23.3044 8.78906 23.7891C8.78906 24.2737 8.39478 24.668 7.91016 24.668ZM22.0312 24.668C21.5466 24.668 21.1523 24.2737 21.1523 23.7891C21.1523 23.3044 21.5466 22.9102 22.0312 22.9102C22.5159 22.9102 22.9102 23.3044 22.9102 23.7891C22.9102 24.2737 22.5159 24.668 22.0312 24.668ZM24.5168 22.9103C24.154 21.8872 23.1771 21.1523 22.0312 21.1523C20.8854 21.1523 19.9085 21.8872 19.5457 22.9103H10.3957C10.0329 21.8872 9.05602 21.1523 7.91016 21.1523C6.7643 21.1523 5.78736 21.8872 5.42461 22.9103H1.75781V21.1519H2.63672C3.12211 21.1519 3.51562 20.7589 3.51562 20.2736C3.51562 19.7882 3.12211 19.3946 2.63672 19.3946H1.75781V17.6363H27.3633C27.8479 17.6363 28.2422 18.0311 28.2422 18.5157V19.3946H26.4844C25.999 19.3946 25.6055 19.7882 25.6055 20.2736C25.6055 20.7589 25.999 21.1519 26.4844 21.1519H28.2422V22.9103H24.5168Z" fill="#241F10"/>
</g>
<defs>
<clipPath id="clip0_195_4172">
<rect width="30" height="30" fill="white"/>
</clipPath>
</defs>
</svg>
