<svg width="30" height="30" viewBox="0 0 30 30" fill="none" xmlns="http://www.w3.org/2000/svg">
<g clip-path="url(#clip0_195_4223)">
<path d="M28.4937 15.1739V5.06414C28.4937 4.17797 27.7727 3.45703 26.8866 3.45703H25.0028L24.271 1.30512C24.0054 0.524531 23.273 0 22.4484 0H7.55156C6.72703 0 5.99461 0.524531 5.72906 1.30518L4.99717 3.45703H3.11344C2.22727 3.45703 1.50633 4.17797 1.50633 5.06414V15.1739C0.621797 15.5504 0 16.4282 0 17.4486V28.5372C0 29.3438 0.656191 30 1.46285 30H4.81066C5.61732 30 6.27352 29.3438 6.27352 28.5371V26.1081H23.7265V28.5371C23.7265 29.3438 24.3827 30 25.1894 30H28.5372C29.3438 30 30 29.3438 30 28.5371C30 28.2261 30 18.1484 30 17.4485C30 16.4282 29.3782 15.5504 28.4937 15.1739ZM1.75781 24.3502V22.5402H28.2422V24.3502C26.9969 24.3502 2.70803 24.3502 1.75781 24.3502ZM2.47078 16.7356H27.5292C27.9223 16.7356 28.2422 17.0554 28.2422 17.4485V20.7823H1.75781V17.4485C1.75781 17.0555 2.07768 16.7356 2.47078 16.7356ZM3.26414 5.21484H5.3025C5.87268 5.21484 6.37922 4.85215 6.56303 4.31215L7.39324 1.87119C7.41633 1.80334 7.4799 1.75775 7.55156 1.75775H22.4484C22.5201 1.75775 22.5837 1.80334 22.6068 1.87113L23.437 4.31227C23.6208 4.85215 24.1273 5.21484 24.6975 5.21484H26.7359V14.9778H22.8414L25.2904 12.5288C25.6336 12.1856 25.6336 11.6291 25.2904 11.2859L21.3441 7.33963C21.0011 6.99656 20.4443 6.99645 20.1012 7.33963L16.1549 11.2859C15.8119 11.6288 15.8116 12.1856 16.1549 12.5288L18.6039 14.9778H11.3961L13.8451 12.5288C14.1881 12.1859 14.1884 11.629 13.8451 11.2859L9.89883 7.33963C9.55582 6.99656 8.999 6.99645 8.65588 7.33963L4.70965 11.2859C4.36641 11.6291 4.36641 12.1856 4.70965 12.5288L7.15863 14.9778H3.26414V5.21484ZM20.7227 14.6106L18.0193 11.9073L20.7227 9.20402L23.426 11.9073L20.7227 14.6106ZM9.27732 14.6106L6.57404 11.9073L9.27732 9.20402L11.9807 11.9073L9.27732 14.6106ZM4.51564 28.2422H1.75781V26.1081H4.51564V28.2422ZM25.4844 28.2422V26.1081H28.2422V28.2422H25.4844Z" fill="#241F10"/>
</g>
<defs>
<clipPath id="clip0_195_4223">
<rect width="30" height="30" fill="white"/>
</clipPath>
</defs>
</svg>
