<svg width="30" height="30" viewBox="0 0 30 30" fill="none" xmlns="http://www.w3.org/2000/svg">
<path d="M29.1211 9.72656H22.0898C21.6045 9.72656 21.2109 10.1201 21.2109 10.6055V15.8789C21.2109 18.0011 22.7231 19.7767 24.7266 20.185V25.5469H21.2109V24.668C21.2109 19.6315 17.3162 15.483 12.3633 15.0399V14.1211C12.3633 13.6357 11.9698 13.2422 11.4844 13.2422C10.999 13.2422 10.6055 13.6357 10.6055 14.1211V15.0399C5.6526 15.483 1.75781 19.6315 1.75781 24.668V25.5469H0.878906C0.393516 25.5469 0 25.9404 0 26.4258C0 26.9112 0.393516 27.3047 0.878906 27.3047H29.1211C29.6065 27.3047 30 26.9112 30 26.4258C30 25.9404 29.6065 25.5469 29.1211 25.5469H26.4844V20.185C28.4878 19.7767 30 18.0012 30 15.8789V10.6055C30 10.1201 29.6065 9.72656 29.1211 9.72656ZM3.51562 24.668C3.51562 20.3063 7.09037 16.7578 11.4844 16.7578C15.8784 16.7578 19.4531 20.3063 19.4531 24.668V25.5469H3.51562V24.668ZM28.2422 15.8789C28.2422 17.3328 27.0594 18.5156 25.6055 18.5156C24.1516 18.5156 22.9688 17.3328 22.9688 15.8789V11.4844H28.2422V15.8789Z" fill="#241F10"/>
<path d="M16.8164 9.72656H9.72656C8.27268 9.72656 7.08984 10.9094 7.08984 12.3633C7.08984 12.8487 7.48336 13.2422 7.96875 13.2422C8.45414 13.2422 8.84766 12.8487 8.84766 12.3633C8.84766 11.8787 9.24193 11.4844 9.72656 11.4844H16.8164C18.2703 11.4844 19.4531 10.3015 19.4531 8.84766C19.4531 7.39377 18.2703 6.21094 16.8164 6.21094H13.2422C12.7576 6.21094 12.3633 5.81666 12.3633 5.33203V3.57422C12.3633 3.08883 11.9698 2.69531 11.4844 2.69531C10.999 2.69531 10.6055 3.08883 10.6055 3.57422V5.33203C10.6055 6.78592 11.7883 7.96875 13.2422 7.96875H16.8164C17.301 7.96875 17.6953 8.36303 17.6953 8.84766C17.6953 9.33228 17.301 9.72656 16.8164 9.72656Z" fill="#241F10"/>
</svg>
