<svg width="30" height="30" viewBox="0 0 30 30" fill="none" xmlns="http://www.w3.org/2000/svg">
<g clip-path="url(#clip0_195_4177)">
<path d="M28.5422 12.2021H26.4844V8.91382C26.4844 7.78302 25.5644 6.86304 24.4336 6.86304H22.5965C22.4539 5.87058 21.5983 5.10522 20.567 5.10522H19.0441C17.9133 5.10522 16.9934 6.02521 16.9934 7.15601V12.2021H13.0066V7.15601C13.0066 6.02521 12.0867 5.10522 10.9559 5.10522H9.43301C8.4017 5.10522 7.54611 5.87058 7.4035 6.86304H5.56641C4.43561 6.86304 3.51562 7.78302 3.51562 8.91382V12.2021H1.45781C0.653965 12.2021 0 12.8558 0 13.6593V16.3406C0 17.1441 0.653965 17.7978 1.45781 17.7978H3.51562V21.0861C3.51562 22.2169 4.43561 23.1369 5.56641 23.1369H7.4035C7.54611 24.1293 8.4017 24.8947 9.43301 24.8947H10.9559C12.0867 24.8947 13.0066 23.9747 13.0066 22.8439V17.7978H16.9934V22.8439C16.9934 23.9747 17.9133 24.8947 19.0441 24.8947H20.567C21.5983 24.8947 22.4539 24.1293 22.5965 23.1369H24.4336C25.5644 23.1369 26.4844 22.2169 26.4844 21.0861V17.7978H28.5422C29.346 17.7978 30 17.1441 30 16.3406V13.6593C30 12.8558 29.346 12.2021 28.5422 12.2021ZM1.75781 16.04V13.9599H3.51562V16.04H1.75781ZM5.27344 21.0861C5.27344 20.7404 5.27344 9.00933 5.27344 8.91382C5.27344 8.75228 5.40486 8.62085 5.56641 8.62085H7.38223V21.3791H5.56641C5.40486 21.3791 5.27344 21.2476 5.27344 21.0861ZM11.2488 22.8439C11.2488 23.0054 11.1174 23.1369 10.9559 23.1369H9.43301C9.27147 23.1369 9.14004 23.0054 9.14004 22.8439C9.14004 22.4407 9.14004 7.56669 9.14004 7.15601C9.14004 6.99446 9.27147 6.86304 9.43301 6.86304H10.9559C11.1174 6.86304 11.2488 6.99446 11.2488 7.15601V22.8439ZM13.0066 16.04V13.9599H16.9934V16.04H13.0066ZM20.86 22.8439C20.86 23.0054 20.7285 23.1369 20.567 23.1369H19.0441C18.8826 23.1369 18.7512 23.0054 18.7512 22.8439C18.7512 22.4341 18.7512 7.45313 18.7512 7.15601C18.7512 6.99446 18.8826 6.86304 19.0441 6.86304H20.567C20.7285 6.86304 20.86 6.99446 20.86 7.15601V22.8439ZM24.7266 21.0861C24.7266 21.2476 24.5951 21.3791 24.4336 21.3791H22.6178V8.62085H24.4336C24.5951 8.62085 24.7266 8.75228 24.7266 8.91382V21.0861ZM28.2422 16.04H26.4844V13.9599H28.2422V16.04Z" fill="#241F10"/>
</g>
<defs>
<clipPath id="clip0_195_4177">
<rect width="30" height="30" fill="white"/>
</clipPath>
</defs>
</svg>
