<svg width="30" height="30" viewBox="0 0 30 30" fill="none" xmlns="http://www.w3.org/2000/svg">
<g clip-path="url(#clip0_195_4209)">
<path d="M17.8516 5.30273C18.337 5.30273 18.7305 4.90923 18.7305 4.42383C18.7305 3.93842 18.337 3.54492 17.8516 3.54492C17.3662 3.54492 16.9727 3.93842 16.9727 4.42383C16.9727 4.90923 17.3662 5.30273 17.8516 5.30273Z" fill="#241F10"/>
<path d="M14.1309 5.30273C14.6163 5.30273 15.0098 4.90923 15.0098 4.42383C15.0098 3.93842 14.6163 3.54492 14.1309 3.54492C13.6455 3.54492 13.252 3.93842 13.252 4.42383C13.252 4.90923 13.6455 5.30273 14.1309 5.30273Z" fill="#241F10"/>
<path d="M8.80371 3.54492H4.55566C4.07027 3.54492 3.67676 3.93844 3.67676 4.42383C3.67676 4.90922 4.07027 5.30273 4.55566 5.30273H8.80371C9.2891 5.30273 9.68262 4.90922 9.68262 4.42383C9.68262 3.93844 9.2891 3.54492 8.80371 3.54492Z" fill="#241F10"/>
<path d="M30 18.2508C30 17.12 29.08 16.2 27.9492 16.2H22.998L22.9983 2.05078C22.9983 0.91998 22.0784 0 20.9476 0H2.05107C0.920274 0 0.000292969 0.91998 0.000292969 2.05078C0.000292969 2.21771 0 27.1216 0 27.9492C0 29.08 0.91998 30 2.05078 30H16.2012H27.9492C29.08 30 30 29.08 30 27.9492V26.2793C30 25.8438 29.8631 25.4399 29.6307 25.1074C29.8631 24.775 30 24.371 30 23.9355V22.2656C30 21.8299 29.8629 21.4257 29.6303 21.0932C29.863 20.7606 30 20.3565 30 19.9207V18.2508ZM28.2422 18.2508V19.9207C28.2422 20.0822 28.1108 20.2137 27.9492 20.2137C27.496 20.2137 16.7289 20.2137 16.2012 20.2137C16.0396 20.2137 15.9082 20.0822 15.9082 19.9207C15.9082 18.4351 15.9082 21.7398 15.9082 18.2508C15.9082 18.0892 16.0396 17.9578 16.2012 17.9578H27.9492C28.1108 17.9578 28.2422 18.0892 28.2422 18.2508ZM28.2422 23.9355C28.2422 24.0971 28.1108 24.2285 27.9492 24.2285H16.2012C16.0359 24.2285 15.9082 24.0933 15.9082 23.9355V22.2656C15.9082 22.1041 16.0396 21.9727 16.2012 21.9727H27.9492C28.1108 21.9727 28.2422 22.1041 28.2422 22.2656V23.9355ZM14.158 24.1126C13.3321 24.5073 12.4246 24.7137 11.499 24.7137C9.07705 24.7137 6.92314 23.3072 5.92084 21.1816H7.94209C7.94971 21.1816 7.95721 21.1811 7.96482 21.1811C8.79152 22.2885 10.0972 22.9559 11.499 22.9559C12.4705 22.9559 13.3973 22.64 14.1608 22.0593C14.1565 22.1016 14.1504 22.2013 14.1504 22.2656V23.9355C14.1504 23.9934 14.1549 24.0765 14.158 24.1126ZM5.39326 19.4238C5.31023 18.8418 5.30918 18.2552 5.39326 17.666H7.94203C8.42666 17.666 8.82094 18.0603 8.82094 18.5449C8.82094 19.0296 8.42666 19.4238 7.94203 19.4238H5.39326ZM9.70904 16.5897C10.1917 16.1479 10.827 15.8919 11.499 15.8919C12.8558 15.8919 14.1504 16.9655 14.1504 18.6337C14.1037 20.0485 12.9162 21.198 11.499 21.198C10.8268 21.198 10.1916 20.9419 9.70916 20.5001C10.2429 20.0173 10.5788 19.3196 10.5788 18.5449C10.5788 17.7702 10.2428 17.0725 9.70904 16.5897ZM15.3465 16.3873C14.5889 15.0421 13.1499 14.134 11.499 14.134C10.0974 14.134 8.79158 14.8014 7.96447 15.9088C7.88227 15.908 8.35102 15.9082 5.92078 15.9082C6.92291 13.7828 9.07688 12.3762 11.4991 12.3762C14.0209 12.3762 16.2699 13.9314 17.2059 16.2H16.2012C15.8962 16.2 15.6069 16.2674 15.3465 16.3873ZM1.75811 2.05078C1.75811 1.88924 1.88953 1.75781 2.05107 1.75781H20.9476C21.1091 1.75781 21.2405 1.88924 21.2405 2.05078V7.08984H1.75811V2.05078ZM2.05078 28.2422C1.88924 28.2422 1.75781 28.1108 1.75781 27.9492V8.84766H21.2402V16.2H19.0717C18.0442 12.8883 14.9784 10.6184 11.499 10.6184C7.10197 10.6184 3.57246 14.1781 3.57246 18.5449C3.57246 22.9101 7.10063 26.4715 11.499 26.4715C12.4148 26.4715 13.3171 26.3138 14.1687 26.0095C14.1564 26.1031 14.1504 26.2022 14.1504 26.2793V27.9492C14.1504 28.0446 14.1604 28.1659 14.1713 28.2422H2.05078ZM28.2422 27.9492C28.2422 28.1108 28.1108 28.2422 27.9492 28.2422H16.2012C16.0396 28.2422 15.9082 28.1108 15.9082 27.9492V26.2793C15.9082 26.1178 16.0396 25.9863 16.2012 25.9863H27.9492C28.1108 25.9863 28.2422 26.1178 28.2422 26.2793V27.9492Z" fill="#241F10"/>
</g>
<defs>
<clipPath id="clip0_195_4209">
<rect width="30" height="30" fill="white"/>
</clipPath>
</defs>
</svg>
