<svg width="30" height="30" viewBox="0 0 30 30" fill="none" xmlns="http://www.w3.org/2000/svg">
<g clip-path="url(#clip0_195_4228)">
<path d="M28.8572 25.4431L26.85 14.7669C26.7719 14.3514 26.409 14.0503 25.9862 14.0503H24.3108L24.8446 12.6204C25.2109 11.6391 24.5166 10.5322 23.3631 10.5322C23.3103 6.88734 20.5497 3.88646 17.007 3.45551V1.75781H17.8273C18.3127 1.75781 18.7063 1.3643 18.7063 0.878906C18.7063 0.393516 18.3127 0 17.8273 0H14.4289C13.9435 0 13.55 0.393516 13.55 0.878906C13.55 1.3643 13.9435 1.75781 14.4289 1.75781H15.2492V3.45557C11.7065 3.88646 8.94594 6.8874 8.89315 10.5322C7.73915 10.5322 7.04551 11.6397 7.41167 12.6205L7.94546 14.0504C7.8663 14.0504 6.76467 14.0501 3.97087 14.0501C2.97665 14.0501 2.07337 14.6372 1.6696 15.5457C1.6659 15.554 1.66233 15.5623 1.65893 15.5708L1.19323 16.7126C1.00995 17.1621 1.22569 17.675 1.67516 17.8584C2.1244 18.0417 2.63751 17.826 2.8209 17.3764L3.28051 16.2496C3.40462 15.9809 3.67438 15.8079 3.97098 15.8079H5.22852L3.39946 25.4415C3.29674 25.9825 3.71194 26.4844 4.2629 26.4844H7.50395V27.118C7.50395 28.7071 8.79682 30 10.3859 30C11.9751 30 13.2679 28.7071 13.2679 27.118V26.4844H18.9883V27.118C18.9883 28.7071 20.2812 30 21.8703 30C23.4594 30 24.7523 28.7071 24.7523 27.118V26.4844H27.9934C28.5433 26.4844 28.9589 25.984 28.8572 25.4431ZM16.1281 5.15994C19.113 5.15994 21.5481 7.55965 21.6056 10.531H10.6507C10.7082 7.55959 13.1432 5.15994 16.1281 5.15994ZM9.16467 12.29H23.0916L22.4345 14.0503H9.82174L9.16467 12.29ZM11.5101 27.118C11.5101 27.7379 11.0058 28.2422 10.3859 28.2422C9.76608 28.2422 9.26176 27.7379 9.26176 27.118V26.4844H11.5101V27.118ZM22.9945 27.118C22.9945 27.7379 22.4902 28.2422 21.8703 28.2422C21.2505 28.2422 20.7461 27.7379 20.7461 27.118V26.4844H22.9945V27.118ZM23.0928 24.7266L22.3581 19.9637C22.2841 19.4839 21.8351 19.1548 21.3555 19.229C20.8757 19.303 20.5469 19.7519 20.6209 20.2316L21.3142 24.7266C20.882 24.7266 17.4326 24.7266 17.007 24.7266V20.0977C17.007 19.6123 16.6135 19.2188 16.1281 19.2188C15.6427 19.2188 15.2492 19.6123 15.2492 20.0977V24.7266C14.824 24.7266 11.3742 24.7266 10.9421 24.7266L11.6354 20.2317C11.7094 19.7519 11.3805 19.3031 10.9007 19.2291C10.4212 19.1549 9.97215 19.484 9.89815 19.9637L9.1635 24.7266C8.75885 24.7266 5.72686 24.7266 5.32444 24.7266L7.01774 15.8081H25.2572L26.9339 24.7266C26.5394 24.7266 23.4765 24.7266 23.0928 24.7266Z" fill="#241F10"/>
</g>
<defs>
<clipPath id="clip0_195_4228">
<rect width="30" height="30" fill="white"/>
</clipPath>
</defs>
</svg>
