<svg width="30" height="30" viewBox="0 0 30 30" fill="none" xmlns="http://www.w3.org/2000/svg">
<g clip-path="url(#clip0_195_4183)">
<path d="M28.5352 2.19489H3.0873C2.27959 2.19489 1.62246 2.85201 1.62246 3.65973V6.13063H1.36406C0.611895 6.13063 0 6.74252 0 7.49469V10.04C0 10.7921 0.611895 11.4041 1.36406 11.4041H1.62246V14.5095H1.36406C0.611895 14.5095 0 15.1214 0 15.8736V18.4189C0 19.171 0.611895 19.783 1.36406 19.783H1.62246V22.2539C1.62246 23.0616 2.27959 23.7187 3.0873 23.7187H5.08225V26.3403C5.08225 27.148 5.73938 27.8052 6.54709 27.8052H9.32139C9.97125 27.8052 10.5503 27.3689 10.7295 26.7441L11.5971 23.7188H20.0255L20.8931 26.7441C21.0722 27.3689 21.6513 27.8052 22.3012 27.8052H25.0755C25.8832 27.8052 26.5403 27.1481 26.5403 26.3404V23.7188H28.5352C29.3429 23.7188 30 23.0616 30 22.2539V3.65973C30 2.85201 29.3429 2.19489 28.5352 2.19489ZM9.10061 26.0473H6.84006V23.7188H9.7684L9.10061 26.0473ZM24.7826 26.0473H22.522L21.8542 23.7188H24.7826V26.0473ZM1.75781 9.64625V7.88844H3.24492V9.64625C2.7068 9.64625 2.29594 9.64625 1.75781 9.64625ZM1.75781 18.0252V16.2673H3.24492V18.0252C2.7068 18.0252 2.29594 18.0252 1.75781 18.0252ZM28.2422 21.9609H3.38027V19.783H3.63926C4.39107 19.783 5.00273 19.1711 5.00273 18.4189V15.8736C5.00273 15.1214 4.39107 14.5095 3.63926 14.5095H3.38027V11.4041H3.63926C4.39107 11.4041 5.00273 10.7922 5.00273 10.04V7.49469C5.00273 6.74252 4.39107 6.13063 3.63926 6.13063H3.38027V3.9527H28.2422V21.9609Z" fill="#241F10"/>
<path d="M7.68555 20.2002H23.938C24.4234 20.2002 24.8169 19.8067 24.8169 19.3213V6.60162C24.8169 6.11623 24.4234 5.72272 23.938 5.72272H7.68555C7.20016 5.72272 6.80664 6.11623 6.80664 6.60162V19.3213C6.80664 19.8067 7.20016 20.2002 7.68555 20.2002ZM8.56445 7.48053H23.0591V18.4424H8.56445V7.48053Z" fill="#241F10"/>
<path d="M16.5879 9.83636H16.2656C15.7802 9.83636 15.3867 10.2299 15.3867 10.7153C15.3867 11.2007 15.7802 11.5942 16.2656 11.5942H16.5879C17.0733 11.5942 17.4668 11.2007 17.4668 10.7153C17.4668 10.2299 17.0733 9.83636 16.5879 9.83636Z" fill="#241F10"/>
<path d="M16.5879 14.3286H16.2656C15.7802 14.3286 15.3867 14.7221 15.3867 15.2075C15.3867 15.6929 15.7802 16.0864 16.2656 16.0864H16.5879C17.0733 16.0864 17.4668 15.6929 17.4668 15.2075C17.4668 14.7221 17.0733 14.3286 16.5879 14.3286Z" fill="#241F10"/>
<path d="M12.1547 9.83636H11.2686C10.7832 9.83636 10.3896 10.2299 10.3896 10.7153C10.3896 11.2007 10.7832 11.5942 11.2686 11.5942H11.6603V14.3286H11.2686C10.7832 14.3286 10.3896 14.7221 10.3896 15.2075C10.3896 15.6929 10.7832 16.0864 11.2686 16.0864H12.1547C12.8513 16.0864 13.4181 15.5196 13.4181 14.8229V11.0998C13.4181 10.4031 12.8513 9.83636 12.1547 9.83636Z" fill="#241F10"/>
<path d="M20.4209 9.83649H20.0986C19.6132 9.83649 19.2197 10.23 19.2197 10.7154C19.2197 11.2008 19.6132 11.5943 20.0986 11.5943H20.4209C20.9063 11.5943 21.2998 11.2008 21.2998 10.7154C21.2998 10.23 20.9063 9.83649 20.4209 9.83649Z" fill="#241F10"/>
<path d="M20.4209 14.3287H20.0986C19.6132 14.3287 19.2197 14.7222 19.2197 15.2076C19.2197 15.693 19.6132 16.0865 20.0986 16.0865H20.4209C20.9063 16.0865 21.2998 15.693 21.2998 15.2076C21.2998 14.7222 20.9063 14.3287 20.4209 14.3287Z" fill="#241F10"/>
</g>
<defs>
<clipPath id="clip0_195_4183">
<rect width="30" height="30" fill="white"/>
</clipPath>
</defs>
</svg>
