<svg width="30" height="30" viewBox="0 0 30 30" fill="none" xmlns="http://www.w3.org/2000/svg">
<path d="M26.5884 13.4591V5.11768C26.5884 3.42151 25.2085 2.04156 23.5123 2.04156H6.48756C4.79139 2.04156 3.41156 3.42151 3.41156 5.11768V13.4591C1.45711 13.9292 0 15.691 0 17.7876V24.0093C0 24.5029 0.400137 24.903 0.89373 24.903H3.4115V27.0646C3.4115 27.5582 3.81164 27.9583 4.30523 27.9583C4.79883 27.9583 5.19896 27.5582 5.19896 27.0646V24.903H24.8009V27.0646C24.8009 27.5582 25.2011 27.9583 25.6946 27.9583C26.1882 27.9583 26.5884 27.5582 26.5884 27.0646V24.903H29.1062C29.5997 24.903 29.9999 24.5029 29.9999 24.0093V17.7876C30 15.691 28.5429 13.9292 26.5884 13.4591ZM5.19902 5.11768C5.19902 4.40717 5.77711 3.82908 6.48756 3.82908H23.5124C24.2229 3.82908 24.801 4.40717 24.801 5.11768V13.335H21.8476V11.925C21.8476 9.58885 19.947 7.6883 17.6109 7.6883H12.3892C10.0531 7.6883 8.15256 9.58891 8.15256 11.925V13.3349H5.19902V5.11768ZM20.0601 11.925V13.3349H9.9399V11.925C9.9399 10.5745 11.0386 9.47576 12.3891 9.47576H17.6108C18.9613 9.47571 20.0601 10.5745 20.0601 11.925ZM1.78746 23.1156V17.7876C1.78746 16.318 2.98307 15.1224 4.45266 15.1224H25.5472C27.0168 15.1224 28.2124 16.318 28.2124 17.7876V23.1156H1.78746Z" fill="#241F10"/>
</svg>
