<svg width="30" height="30" viewBox="0 0 30 30" fill="none" xmlns="http://www.w3.org/2000/svg">
<g clip-path="url(#clip0_195_4218)">
<path d="M29.9992 20.2433C29.9992 18.8368 28.855 17.6926 27.4485 17.6926H21.9786V12.6785C21.9786 11.9121 21.3549 11.2886 20.5881 11.2886H15.8776V8.96586C16.7241 8.74145 17.445 8.19922 17.8927 7.42315C18.4969 6.37537 18.4969 5.07565 17.8927 4.0311L15.8139 0.437835C15.4777 -0.143357 14.6457 -0.142771 14.3024 0.420725L12.1446 3.96284C11.509 5.00604 11.4873 6.31824 12.0878 7.38717C12.5381 8.18873 13.266 8.74596 14.1198 8.97061V11.2886H9.40928C8.64258 11.2886 8.01879 11.9121 8.01879 12.6785V17.6922L6.16547 20.696L2.36443 18.1553C1.62404 17.6608 0.625841 18.1393 0.546212 19.0246L0.0193953 24.8612C-0.231913 27.644 1.994 29.9996 4.6619 29.9996C5.35535 29.9996 6.0535 29.8397 6.71045 29.5166C6.71139 29.5162 6.71233 29.5156 6.71326 29.5152C7.34859 29.8333 8.05658 30 8.79 30H27.4486C28.855 30 29.9993 28.8558 29.9993 27.4493V25.5168C29.9993 24.8976 29.7786 24.3103 29.3756 23.8464C29.7786 23.3826 29.9993 22.7952 29.9993 22.1757L29.9992 20.2433ZM13.6204 6.52625C13.3263 6.00272 13.3358 5.38631 13.6458 4.87737L15.0336 2.59942L16.3712 4.91141C16.6618 5.41379 16.6614 6.03969 16.37 6.54494C16.0846 7.03977 15.5789 7.32354 14.9826 7.32354C14.4016 7.32354 13.9051 7.03297 13.6204 6.52625ZM27.4486 19.4505C27.8858 19.4505 28.2414 19.8061 28.2414 20.2433V22.1758C28.2414 22.5968 27.9037 22.9479 27.4856 22.9665C27.471 22.9663 27.4584 22.9662 27.4486 22.9662H21.9787V19.4505H27.4486ZM9.77672 13.0466H20.2208V28.2421C16.3673 28.2421 16.6661 28.2445 16.5915 28.2371C17.3556 27.2892 17.7204 26.0809 17.6103 24.8615C17.6103 24.8615 17.0874 19.0679 17.0835 19.0247C17.0038 18.1393 16.0058 17.6607 15.2644 18.1558C15.0949 18.2693 11.7679 20.4929 11.5123 20.6637L9.78217 17.7123L9.77666 17.7052V13.0466H9.77672ZM12.5051 28.2032C13.6511 26.7073 13.813 24.6396 12.8438 22.9649L12.3946 22.1885L15.4214 20.1654C15.4443 20.4196 15.8595 25.0193 15.8595 25.0193C15.9509 26.0321 15.5221 27.009 14.7126 27.6326C14.7124 27.6327 14.7122 27.6329 14.712 27.633C14.1022 28.1036 13.3121 28.3393 12.5051 28.2032ZM8.87842 19.6214L8.90889 19.674C10.7675 22.8867 10.2652 22.0186 11.3224 23.8453C12.4231 25.7472 11.1672 28.2421 8.79 28.2421C6.45844 28.2421 5.20066 25.6589 6.34313 23.7837L8.87842 19.6214ZM1.77018 25.0193L2.20828 20.1653L5.25024 22.1986L4.8419 22.8692C3.81791 24.5499 3.94863 26.6599 5.12994 28.2037C3.36234 28.5099 1.591 27.0037 1.77018 25.0193ZM28.2414 27.4493C28.2414 27.8865 27.8857 28.2421 27.4485 28.2421H21.9786V24.7264H27.4485C27.4584 24.7264 27.4709 24.7264 27.4856 24.7261C27.9036 24.7447 28.2414 25.0958 28.2414 25.5168V27.4493Z" fill="#241F10"/>
</g>
<defs>
<clipPath id="clip0_195_4218">
<rect width="30" height="30" fill="white"/>
</clipPath>
</defs>
</svg>
