<svg width="30" height="30" viewBox="0 0 30 30" fill="none" xmlns="http://www.w3.org/2000/svg">
<g clip-path="url(#clip0_208_4366)">
<path d="M23.7 0.9375H6.3C4.87854 0.939979 3.516 1.50575 2.51088 2.51088C1.50575 3.516 0.939979 4.87854 0.9375 6.3V23.7C0.939979 25.1215 1.50575 26.484 2.51088 27.4891C3.516 28.4942 4.87854 29.06 6.3 29.0625H23.7C25.1215 29.06 26.484 28.4942 27.4891 27.4891C28.4942 26.484 29.06 25.1215 29.0625 23.7V6.3C29.06 4.87854 28.4942 3.516 27.4891 2.51088C26.484 1.50575 25.1215 0.939979 23.7 0.9375ZM27.1875 23.7C27.185 24.6242 26.8168 25.5098 26.1633 26.1633C25.5098 26.8168 24.6242 27.185 23.7 27.1875H6.3C5.37582 27.185 4.4902 26.8168 3.8367 26.1633C3.1832 25.5098 2.81497 24.6242 2.8125 23.7V6.3C2.81497 5.37582 3.1832 4.4902 3.8367 3.8367C4.4902 3.1832 5.37582 2.81497 6.3 2.8125H23.7C24.6242 2.81497 25.5098 3.1832 26.1633 3.8367C26.8168 4.4902 27.185 5.37582 27.1875 6.3V23.7Z" fill="#241F10"/>
<path d="M23.4375 16.725C23.1889 16.725 22.9504 16.8238 22.7746 16.9996C22.5988 17.1754 22.5 17.4139 22.5 17.6625V21.1781L8.82187 7.5H12.3375C12.5861 7.5 12.8246 7.40123 13.0004 7.22541C13.1762 7.0496 13.275 6.81114 13.275 6.5625C13.275 6.31386 13.1762 6.0754 13.0004 5.89959C12.8246 5.72377 12.5861 5.625 12.3375 5.625H6.27188C6.10031 5.625 5.93578 5.69315 5.81447 5.81447C5.69315 5.93578 5.625 6.10031 5.625 6.27188V12.3375C5.625 12.5861 5.72377 12.8246 5.89959 13.0004C6.0754 13.1762 6.31386 13.275 6.5625 13.275C6.81114 13.275 7.0496 13.1762 7.22541 13.0004C7.40123 12.8246 7.5 12.5861 7.5 12.3375V8.82187L21.1781 22.5H17.6625C17.4139 22.5 17.1754 22.5988 16.9996 22.7746C16.8238 22.9504 16.725 23.1889 16.725 23.4375C16.725 23.6861 16.8238 23.9246 16.9996 24.1004C17.1754 24.2762 17.4139 24.375 17.6625 24.375H23.7281C23.8997 24.375 24.0642 24.3068 24.1855 24.1855C24.3068 24.0642 24.375 23.8997 24.375 23.7281V17.6625C24.375 17.4139 24.2762 17.1754 24.1004 16.9996C23.9246 16.8238 23.6861 16.725 23.4375 16.725Z" fill="#241F10"/>
</g>
<defs>
<clipPath id="clip0_208_4366">
<rect width="30" height="30" fill="white"/>
</clipPath>
</defs>
</svg>
