<svg width="30" height="30" viewBox="0 0 30 30" fill="none" xmlns="http://www.w3.org/2000/svg">
<path d="M28.184 15.0559H28.1071V2.76605C28.1071 2.28066 27.7136 1.88715 27.2282 1.88715C26.7428 1.88715 26.3493 2.28066 26.3493 2.76605V15.0559H3.6508V2.76605C3.6508 2.28066 3.25729 1.88715 2.77189 1.88715C2.2865 1.88715 1.89299 2.28066 1.89299 2.76605V15.0559H1.81605C0.814629 15.0559 0 15.8705 0 16.8719V26.2969C0 27.2983 0.814629 28.1129 1.816 28.1129H28.184C29.1854 28.1129 30 27.2983 30 26.2969V16.8719C30 15.8705 29.1854 15.0559 28.184 15.0559ZM28.2422 26.2969C28.2422 26.329 28.2161 26.3551 28.184 26.3551H1.816C1.78389 26.3551 1.75781 26.329 1.75781 26.2969V16.8719C1.75781 16.8397 1.78389 16.8137 1.816 16.8137H28.184C28.2161 16.8137 28.2422 16.8397 28.2422 16.8719V26.2969Z" fill="#241F10"/>
<path d="M8.3246 7.49266C10.1044 5.71282 12.475 4.7326 14.9996 4.7326C17.5242 4.7326 19.8948 5.71282 21.6746 7.49261C22.0178 7.83579 22.5743 7.83579 22.9175 7.49261C23.2608 7.14942 23.2608 6.5929 22.9175 6.24966C20.8057 4.13782 17.9937 2.97479 14.9996 2.97479C12.0055 2.97479 9.19349 4.13788 7.08165 6.24977C6.73841 6.59296 6.73841 7.14948 7.08165 7.49272C7.42489 7.83591 7.98136 7.83585 8.3246 7.49266Z" fill="#241F10"/>
<path d="M20.2678 10.1432C20.6111 9.8 20.6111 9.24347 20.2678 8.90023C17.3634 5.99574 12.6375 5.99574 9.73302 8.90023C9.38978 9.24342 9.38978 9.79994 9.73302 10.1432C10.0762 10.4864 10.6327 10.4864 10.976 10.1432C13.1951 7.92406 16.8058 7.92406 19.0249 10.1432C19.3682 10.4865 19.9246 10.4864 20.2678 10.1432Z" fill="#241F10"/>
<path d="M12.3834 11.5509C12.0402 11.8941 12.0402 12.4506 12.3834 12.7939C12.7266 13.1371 13.2831 13.1371 13.6264 12.7939C14.384 12.0363 15.6166 12.0363 16.3742 12.7939C16.7175 13.1371 17.2739 13.1371 17.6171 12.7939C17.9604 12.4507 17.9604 11.8942 17.6171 11.5509C16.1742 10.1079 13.8263 10.1079 12.3834 11.5509Z" fill="#241F10"/>
<path d="M6.59588 18.8184H5.65527C5.16988 18.8184 4.77637 19.2119 4.77637 19.6973C4.77637 20.1827 5.16988 20.5762 5.65527 20.5762H6.59588C7.08127 20.5762 7.47479 20.1827 7.47479 19.6973C7.47479 19.2119 7.08127 18.8184 6.59588 18.8184Z" fill="#241F10"/>
<path d="M6.59588 22.5809H5.65527C5.16988 22.5809 4.77637 22.9744 4.77637 23.4598C4.77637 23.9452 5.16988 24.3387 5.65527 24.3387H6.59588C7.08127 24.3387 7.47479 23.9452 7.47479 23.4598C7.47479 22.9744 7.08127 22.5809 6.59588 22.5809Z" fill="#241F10"/>
<path d="M11.299 18.8184H10.3584C9.87301 18.8184 9.47949 19.2119 9.47949 19.6973C9.47949 20.1827 9.87301 20.5762 10.3584 20.5762H11.299C11.7844 20.5762 12.1779 20.1827 12.1779 19.6973C12.1779 19.2119 11.7844 18.8184 11.299 18.8184Z" fill="#241F10"/>
<path d="M11.299 22.5809H10.3584C9.87301 22.5809 9.47949 22.9744 9.47949 23.4598C9.47949 23.9452 9.87301 24.3387 10.3584 24.3387H11.299C11.7844 24.3387 12.1779 23.9452 12.1779 23.4598C12.1779 22.9744 11.7844 22.5809 11.299 22.5809Z" fill="#241F10"/>
<path d="M16.0021 18.8184H15.0615C14.5761 18.8184 14.1826 19.2119 14.1826 19.6973C14.1826 20.1827 14.5761 20.5762 15.0615 20.5762H16.0021C16.4875 20.5762 16.881 20.1827 16.881 19.6973C16.881 19.2119 16.4876 18.8184 16.0021 18.8184Z" fill="#241F10"/>
<path d="M16.0021 22.5809H15.0615C14.5761 22.5809 14.1826 22.9744 14.1826 23.4598C14.1826 23.9452 14.5761 24.3387 15.0615 24.3387H16.0021C16.4875 24.3387 16.881 23.9452 16.881 23.4598C16.881 22.9744 16.4876 22.5809 16.0021 22.5809Z" fill="#241F10"/>
<path d="M22.5869 19.0652C21.133 19.0652 19.9502 20.2481 19.9502 21.702C19.9502 23.1559 21.133 24.3387 22.5869 24.3387C24.0408 24.3387 25.2236 23.1559 25.2236 21.702C25.2236 20.2481 24.0408 19.0652 22.5869 19.0652ZM22.5869 22.5809C22.1023 22.5809 21.708 22.1866 21.708 21.702C21.708 21.2173 22.1023 20.8231 22.5869 20.8231C23.0715 20.8231 23.4658 21.2173 23.4658 21.702C23.4658 22.1866 23.0715 22.5809 22.5869 22.5809Z" fill="#241F10"/>
</svg>
