<svg width="50" height="51" viewBox="0 0 50 51" fill="none" xmlns="http://www.w3.org/2000/svg">
<path d="M37.4681 5.11466C37.248 4.89075 36.8968 4.89753 36.684 5.11035L30.042 11.7521C29.6963 12.0969 29.9396 12.6934 30.4319 12.6934H30.4369L30.9611 12.6889V18.895C30.9611 19.1958 31.2023 19.441 31.5032 19.4464C35.4135 19.5149 38.9605 19.4976 42.3517 19.4148C42.6565 19.4148 42.9046 19.1658 42.9031 18.8609L42.8729 12.5866L43.4316 12.5818C43.8919 12.5779 44.1979 11.9905 43.8373 11.6224L37.4681 5.11466ZM37.3978 18.3817C36.814 18.3843 36.2247 18.3837 35.6349 18.3822V15.1564H37.3978V18.3817ZM38.5007 18.3732V14.6049C38.5007 14.3004 38.2537 14.0534 37.9492 14.0534H35.0835C34.779 14.0534 34.532 14.3004 34.532 14.6049V18.38C33.7176 18.3746 32.8958 18.3655 32.064 18.3525V12.6794L41.77 12.596L41.7973 18.3245C40.703 18.3489 39.6041 18.3633 38.5007 18.3732ZM31.7746 11.579L37.0696 6.28438L42.1643 11.4896L31.7746 11.579Z" fill="#0D1820"/>
<path d="M35.4518 9.26059C35.2802 9.718 35.4267 10.2666 35.8079 10.5955C36.1951 10.9288 36.7736 10.9922 37.2153 10.7484C37.6857 10.4881 37.9284 9.92624 37.7912 9.41175C37.5035 8.3427 35.8461 8.20716 35.4518 9.26059Z" fill="#0D1820"/>
<path d="M41.4783 4.08746C34.0771 1.23629 26.7497 5.49433 25.9045 11.9114C25.2072 17.2043 29.0186 20.1892 29.0819 20.4304C29.3441 21.4152 29.1354 22.7212 28.0206 23.8976C27.4904 24.4576 27.9954 25.4489 28.8852 25.1626C29.1703 25.2691 29.5426 25.3495 30.0767 25.3984C30.4686 25.4343 32.2838 24.2415 33.5478 23.233C33.6493 23.253 33.7502 23.2729 33.8642 23.312C41.6399 25.9801 47.671 20.9316 48.6482 15.1563C49.3593 10.9538 47.3943 6.36646 41.4783 4.08746ZM47.0026 14.6888C46.2735 20.2212 40.3022 23.6094 34.4703 22.1064C33.8317 21.9429 33.6741 21.7142 33.0076 22.1961C31.9412 22.8905 30.7636 23.3677 29.5379 23.787C29.5422 23.7809 29.5458 23.7748 29.5501 23.7687C30.3474 22.5848 30.3561 20.9352 30.149 20.1497C29.9683 19.4609 26.3618 16.8938 26.9974 12.0553C27.6437 7.14876 32.6153 3.64491 38.1862 4.38069C43.6995 5.10665 47.6546 9.73061 47.0026 14.6888Z" fill="#0D1820"/>
<path d="M8.10658 20.3895C7.83085 20.7787 7.71021 21.2867 7.76766 21.8192C7.87752 22.8388 8.84188 23.7852 9.67195 24.0771C9.68744 24.0825 9.70292 24.0811 9.7184 24.0851C9.94464 25.7723 10.4422 27.6187 11.5454 29.2037C14.471 33.4099 21.0618 34.1139 23.4307 28.309C23.9388 27.0637 24.181 25.7297 24.4104 24.4034C26.4783 24.0681 26.8091 20.8635 25.3632 20.1076C26.5441 16.0642 24.6268 12.1594 21.3182 10.9416C19.6588 10.3328 17.6457 10.6035 16.087 11.5253C16.156 11.2354 16.2644 10.9549 16.411 10.6986C16.5617 10.434 16.4698 10.0972 16.2056 9.94606C15.9406 9.79419 15.6046 9.88718 15.4531 10.1514C15.2498 10.5078 15.1028 10.8897 15.0104 11.2847C14.9163 11.1997 14.8173 11.1197 14.7077 11.0544C14.4463 10.8986 14.1081 10.9837 13.9516 11.2454C13.7958 11.5071 13.8812 11.8453 14.1433 12.0015C14.2339 12.0555 14.3107 12.1309 14.3766 12.2149C11.9114 11.9399 9.47023 13.8856 9.13413 17.3155C9.05231 18.1473 9.10487 18.9621 9.2146 19.7166C8.78641 19.7742 8.37352 20.013 8.10658 20.3895ZM22.2574 27.6093C20.153 32.5342 15.0577 32.3205 12.4501 28.574C11.3142 26.9413 10.7437 24.7786 10.6528 21.8124C11.1486 20.8972 11.7228 19.7695 12.1335 18.6023C15.4071 20.0301 18.7626 19.7831 22.1289 17.8673C22.5116 19.5221 22.9883 21.0026 23.2376 22.5645C23.2411 22.5866 23.253 22.6044 23.2589 22.6254C23.1361 24.2983 22.9296 26.0334 22.2574 27.6093ZM24.3109 23.2922C24.3421 22.9334 24.3696 22.5761 24.3929 22.2235C24.3931 22.2207 24.3918 22.2184 24.3919 22.2156C24.6046 21.8919 24.7943 21.5523 24.9567 21.196C25.3281 21.8009 25.2022 23.0539 24.3109 23.2922ZM10.2313 17.4232C10.5458 14.2208 13.0262 12.6778 14.9418 13.48C15.1587 13.5708 15.4114 13.5134 15.568 13.3367C16.8159 11.9258 19.1748 11.3298 20.9376 11.9767C24.0791 13.1329 25.5472 17.1214 23.9759 20.6852C23.6337 19.2614 23.315 18.2179 23.0444 16.8879C22.9665 16.51 22.536 16.3262 22.2079 16.5325C18.7676 18.7179 15.3482 18.99 12.0473 17.3446C11.7353 17.1917 11.3675 17.3566 11.2718 17.6828C11.047 18.4479 10.7186 19.2165 10.3735 19.9359C10.2068 18.9912 10.1571 18.1794 10.2313 17.4232ZM9.41502 20.8026C9.45802 20.9971 9.57663 22.5455 9.59243 22.7846C8.48281 21.9368 8.82126 20.782 9.41502 20.8026Z" fill="#0D1820"/>
<path d="M1.91269 45.9283L2.51384 47.2056C9.8868 47.8102 20.3633 47.8836 28.4499 47.8171C29.9422 47.8048 31.4047 46.394 31.2102 45.4704C30.6393 42.699 29.8365 39.7783 26.9069 37.2091C24.0995 34.7464 19.4204 32.9476 15.112 33.6715C13.2824 33.9886 10.3958 34.9404 8.65088 36.0781C5.22214 38.3048 2.88198 41.0992 1.27999 44.8862C1.10614 45.3306 1.3865 45.859 1.91269 45.9283ZM18.2208 34.6482C18.1401 35.8506 16.1162 36.3159 15.8181 34.6875C16.6142 34.5907 17.4163 34.5771 18.2208 34.6482ZM18.6901 42.1044C18.2515 42.6559 17.6725 43.3866 17.1829 43.877C16.5827 43.368 15.9468 42.616 15.3454 42.0291L16.9897 38.0424C17.5319 39.4218 18.0481 40.6996 18.6901 42.1044ZM9.2519 37.0026C10.7067 36.0541 13.0256 35.2461 14.7293 34.8735C14.8819 35.7261 15.427 36.51 16.3265 36.7568L14.1799 41.9616C14.0902 42.1784 14.1484 42.4279 14.3236 42.5838C15.1119 43.2845 15.9548 44.3959 16.8985 45.051C17.1014 45.1916 17.3737 45.1809 17.5649 45.0226C18.26 44.4474 19.1336 43.3191 19.7456 42.5493C19.8808 42.3782 19.9258 42.1503 19.8304 41.9436C18.9976 40.149 18.3785 38.5675 17.6566 36.7216C18.6428 36.4322 19.21 35.7205 19.304 34.7958C21.5946 35.2114 24.3011 36.3909 26.1802 38.0384C28.7609 40.3018 29.522 42.8139 30.0713 45.41C21.8896 45.7444 9.96022 45.8078 2.48058 44.8894C3.98205 41.5361 6.14269 39.0222 9.2519 37.0026Z" fill="#0D1820"/>
</svg>
