<svg width="45" height="46" viewBox="0 0 45 46" fill="none" xmlns="http://www.w3.org/2000/svg">
<path d="M7.21446 5.29456H16.1033L20.5478 16.3974L14.9922 19.7282C17.3721 24.5502 21.2777 28.4529 26.1033 30.831L29.4367 25.2796L40.5478 29.7207V38.6029C40.5478 39.7808 40.0795 40.9104 39.246 41.7433C38.4125 42.5762 37.2821 43.0441 36.1033 43.0441C27.435 42.5177 19.2592 38.8394 13.1185 32.7033C6.9778 26.5672 3.2968 18.3975 2.77002 9.73567C2.77002 8.55782 3.23827 7.4282 4.07177 6.59533C4.90526 5.76246 6.03572 5.29456 7.21446 5.29456" stroke="white" stroke-width="4.2" stroke-linecap="round" stroke-linejoin="round"/>
<path d="M29.4375 11.9562C30.6162 11.9562 31.7467 12.4244 32.5802 13.2579C33.4137 14.0914 33.8819 15.2219 33.8819 16.4006" stroke="white" stroke-width="4.2" stroke-linecap="round" stroke-linejoin="round"/>
<path d="M29.4375 3.07397C32.9737 3.07397 36.3651 4.47873 38.8656 6.97921C41.3661 9.4797 42.7708 12.8711 42.7708 16.4073" stroke="white" stroke-width="4.2" stroke-linecap="round" stroke-linejoin="round"/>
</svg>
