<svg width="41" height="41" viewBox="0 0 41 41" fill="none" xmlns="http://www.w3.org/2000/svg">
<path d="M36.9131 0.915039H31.9131V1.22754C31.2881 1.01921 30.7412 0.915039 30.2725 0.915039H6.91309C6.02767 0.915039 5.25944 1.24056 4.6084 1.8916C3.95736 2.54264 3.63184 3.33691 3.63184 4.27441V9.27441H1.91309C0.819336 9.27441 0.272461 9.82129 0.272461 10.915C0.272461 12.0088 0.819336 12.5557 1.91309 12.5557H3.63184V19.2744H1.91309C0.819336 19.2744 0.272461 19.8213 0.272461 20.915C0.272461 22.0088 0.819336 22.5557 1.91309 22.5557H3.63184V29.2744H1.91309C0.819336 29.2744 0.272461 29.8213 0.272461 30.915C0.272461 32.0088 0.819336 32.5557 1.91309 32.5557H3.63184V37.5557C3.63184 38.4932 3.95736 39.2874 4.6084 39.9385C5.25944 40.5895 6.02767 40.915 6.91309 40.915H30.2725C31.6787 40.915 32.8636 40.4333 33.8271 39.4697C34.7907 38.5062 35.2725 37.3213 35.2725 35.915V29.2744C36.6787 29.2744 37.8636 28.7926 38.8271 27.8291C39.7907 26.8656 40.2725 25.6807 40.2725 24.2744V17.5557H39.96C40.1683 16.9307 40.2725 16.3838 40.2725 15.915V9.27441H39.96C40.1683 8.54525 40.2725 7.97233 40.2725 7.55566V4.27441C40.2725 3.33691 39.9469 2.54264 39.2959 1.8916C38.6449 1.24056 37.8506 0.915039 36.9131 0.915039ZM35.2725 4.27441H36.9131V7.55566C36.9131 8.7015 36.3662 9.27441 35.2725 9.27441V4.27441ZM35.2725 12.5557C35.7412 12.5557 36.2881 12.4515 36.9131 12.2432V15.915C36.9131 17.0088 36.3662 17.5557 35.2725 17.5557V12.5557ZM31.9131 35.915C31.9131 37.0088 31.3662 37.5557 30.2725 37.5557H6.91309V32.5557H8.63184C9.72559 32.5557 10.2725 32.0088 10.2725 30.915C10.2725 29.8213 9.72559 29.2744 8.63184 29.2744H6.91309V22.5557H8.63184C9.72559 22.5557 10.2725 22.0088 10.2725 20.915C10.2725 19.8213 9.72559 19.2744 8.63184 19.2744H6.91309V12.5557H8.63184C9.72559 12.5557 10.2725 12.0088 10.2725 10.915C10.2725 9.82129 9.72559 9.27441 8.63184 9.27441H6.91309V4.27441H30.2725C31.3662 4.27441 31.9131 4.82129 31.9131 5.91504V35.915ZM35.2725 25.915V20.915C35.7412 20.915 36.2881 20.8109 36.9131 20.6025V24.2744C36.9131 25.3682 36.3662 25.915 35.2725 25.915Z" fill="white"/>
</svg>
