<svg width="31" height="31" viewBox="0 0 31 31" fill="none" xmlns="http://www.w3.org/2000/svg">
<g clip-path="url(#clip0_35_822)">
<path d="M15.4527 0.679688C7.49974 0.679688 1.05273 7.12669 1.05273 15.0797C1.05273 23.0327 7.49974 29.4797 15.4527 29.4797C23.4057 29.4797 29.8527 23.0327 29.8527 15.0797C29.8527 7.12669 23.4057 0.679688 15.4527 0.679688ZM18.8637 10.6307H16.6992C16.4427 10.6307 16.1577 10.9682 16.1577 11.4167V12.9797H18.8652L18.4557 15.2087H16.1577V21.9002H13.6032V15.2087H11.2857V12.9797H13.6032V11.6687C13.6032 9.78769 14.9082 8.25919 16.6992 8.25919H18.8637V10.6307Z" fill="#0D1820"/>
</g>
<defs>
<clipPath id="clip0_35_822">
<rect width="30" height="30" fill="white" transform="translate(0.453125 0.0800781)"/>
</clipPath>
</defs>
</svg>
