<svg width="31" height="31" viewBox="0 0 31 31" fill="none" xmlns="http://www.w3.org/2000/svg">
<g clip-path="url(#clip0_35_828)">
<path d="M20.4527 15.0797C20.4527 16.2732 19.9786 17.4178 19.1347 18.2617C18.2908 19.1056 17.1462 19.5797 15.9527 19.5797C14.7593 19.5797 13.6147 19.1056 12.7708 18.2617C11.9268 17.4178 11.4527 16.2732 11.4527 15.0797C11.4527 14.8232 11.4797 14.5727 11.5262 14.3297H9.95274V20.3252C9.95274 20.7422 10.2902 21.0797 10.7072 21.0797H21.1997C21.3996 21.0793 21.5911 20.9996 21.7323 20.8582C21.8735 20.7167 21.9527 20.525 21.9527 20.3252V14.3297H20.3792C20.4257 14.5727 20.4527 14.8232 20.4527 15.0797ZM15.9527 18.0797C16.3468 18.0796 16.737 18.0019 17.101 17.851C17.465 17.7001 17.7958 17.479 18.0744 17.2003C18.3529 16.9215 18.5739 16.5907 18.7246 16.2266C18.8753 15.8625 18.9528 15.4723 18.9527 15.0782C18.9526 14.6841 18.8749 14.2939 18.724 13.9299C18.5731 13.5659 18.352 13.2351 18.0733 12.9566C17.7946 12.678 17.4637 12.457 17.0996 12.3063C16.7355 12.1556 16.3453 12.0781 15.9512 12.0782C15.1554 12.0784 14.3922 12.3947 13.8296 12.9576C13.267 13.5205 12.951 14.2838 12.9512 15.0797C12.9514 15.8755 13.2678 16.6387 13.8307 17.2013C14.3936 17.7639 15.1569 18.0799 15.9527 18.0797ZM19.5527 11.9297H21.3512C21.4707 11.9297 21.5853 11.8823 21.67 11.798C21.7546 11.7136 21.8023 11.5992 21.8027 11.4797V9.68119C21.8027 9.56144 21.7552 9.4466 21.6705 9.36193C21.5858 9.27726 21.471 9.22969 21.3512 9.22969H19.5527C19.433 9.22969 19.3182 9.27726 19.2335 9.36193C19.1488 9.4466 19.1012 9.56144 19.1012 9.68119V11.4797C19.1027 11.7272 19.3052 11.9297 19.5527 11.9297ZM15.9527 0.679688C12.1336 0.679688 8.47092 2.19683 5.7704 4.89735C3.06987 7.59788 1.55273 11.2606 1.55273 15.0797C1.55273 18.8988 3.06987 22.5615 5.7704 25.262C8.47092 27.9626 12.1336 29.4797 15.9527 29.4797C17.8438 29.4797 19.7163 29.1072 21.4634 28.3836C23.2105 27.6599 24.7979 26.5992 26.1351 25.262C27.4722 23.9249 28.5329 22.3374 29.2566 20.5903C29.9803 18.8432 30.3527 16.9707 30.3527 15.0797C30.3527 13.1887 29.9803 11.3161 29.2566 9.56905C28.5329 7.82196 27.4722 6.23451 26.1351 4.89735C24.7979 3.56019 23.2105 2.49949 21.4634 1.77582C19.7163 1.05215 17.8438 0.679688 15.9527 0.679688ZM23.4527 20.9132C23.4527 21.8297 22.7027 22.5797 21.7862 22.5797H10.1192C9.20274 22.5797 8.45274 21.8297 8.45274 20.9132V9.24619C8.45274 8.32969 9.20274 7.57969 10.1192 7.57969H21.7862C22.7027 7.57969 23.4527 8.32969 23.4527 9.24619V20.9132Z" fill="#0D1820"/>
</g>
<defs>
<clipPath id="clip0_35_828">
<rect width="30" height="30" fill="white" transform="translate(0.953125 0.0800781)"/>
</clipPath>
</defs>
</svg>
