<svg width="31" height="31" viewBox="0 0 31 31" fill="none" xmlns="http://www.w3.org/2000/svg">
<g clip-path="url(#clip0_35_826)">
<path d="M15.4527 0.679688C7.49974 0.679688 1.05273 7.12669 1.05273 15.0797C1.05273 23.0327 7.49974 29.4797 15.4527 29.4797C23.4057 29.4797 29.8527 23.0327 29.8527 15.0797C29.8527 7.12669 23.4057 0.679688 15.4527 0.679688ZM11.9277 21.0482H9.01174V11.6642H11.9277V21.0482ZM10.4517 10.5122C9.53074 10.5122 8.93524 9.85969 8.93524 9.05269C8.93524 8.22919 9.54874 7.59619 10.4892 7.59619C11.4297 7.59619 12.0057 8.22919 12.0237 9.05269C12.0237 9.85969 11.4297 10.5122 10.4517 10.5122ZM22.5777 21.0482H19.6617V15.8477C19.6617 14.6372 19.2387 13.8152 18.1842 13.8152C17.3787 13.8152 16.9002 14.3717 16.6887 14.9072C16.6107 15.0977 16.5912 15.3677 16.5912 15.6362V21.0467H13.6737V14.6567C13.6737 13.4852 13.6362 12.5057 13.5972 11.6627H16.1307L16.2642 12.9662H16.3227C16.7067 12.3542 17.6472 11.4512 19.2207 11.4512C21.1392 11.4512 22.5777 12.7367 22.5777 15.4997V21.0482Z" fill="#0D1820"/>
</g>
<defs>
<clipPath id="clip0_35_826">
<rect width="30" height="30" fill="white" transform="translate(0.453125 0.0800781)"/>
</clipPath>
</defs>
</svg>
