<svg width="38" height="41" viewBox="0 0 38 41" fill="none" xmlns="http://www.w3.org/2000/svg">
<path d="M28.4994 0.915039C25.101 0.915039 22.3456 3.6735 22.3456 7.06889C22.3456 11.1689 27.7302 16.7704 27.7302 22.4058H29.2687C29.2702 16.7704 34.6533 11.3304 34.6533 7.06889C34.6533 3.6735 31.8979 0.915039 28.4994 0.915039ZM28.4994 3.89658C28.9162 3.89678 29.3289 3.97907 29.7139 4.13876C30.0989 4.29845 30.4487 4.5324 30.7432 4.82726C31.0378 5.12213 31.2714 5.47212 31.4307 5.85727C31.5901 6.24241 31.6719 6.65517 31.6717 7.07196C31.6715 7.48876 31.5893 7.90143 31.4296 8.28642C31.2699 8.67142 31.0359 9.02118 30.7411 9.31576C30.4462 9.61034 30.0962 9.84395 29.7111 10.0033C29.3259 10.1626 28.9132 10.2445 28.4964 10.2443C27.6544 10.2439 26.8471 9.909 26.252 9.31336C25.657 8.71771 25.3229 7.91008 25.3233 7.06812C25.3237 6.22616 25.6586 5.41884 26.2542 4.82377C26.8498 4.22871 27.6575 3.89463 28.4994 3.89504V3.89658ZM19.2687 3.99196C9.08867 3.99196 0.807129 12.2735 0.807129 22.4535C0.807129 32.6335 9.08867 40.915 19.2687 40.915C29.4487 40.915 37.7302 32.6335 37.7302 22.4535C37.7302 19.3612 36.9641 16.4597 35.6148 13.895C35.4102 14.3012 35.2041 14.6873 34.9902 15.0981C34.5856 15.8797 34.1594 16.6689 33.7871 17.4535C34.1717 18.5535 34.4364 19.7166 34.5564 20.915H32.5379C32.4271 21.4304 32.3456 21.915 32.3456 22.4058V23.992H34.5579C34.3492 26.1609 33.6765 28.2596 32.5856 30.1458H28.0687C28.4071 28.7027 28.6025 27.1073 28.741 25.4827H25.7102C25.5668 27.0568 25.2941 28.6165 24.8948 30.1458H13.6425C13.1226 28.1323 12.8163 26.0697 12.7287 23.992H24.6517V22.4058C24.6398 21.9035 24.5754 21.4039 24.4594 20.915H12.7302C12.8178 18.8374 13.1241 16.7747 13.6441 14.7612H21.8656C21.332 13.7535 20.8342 12.7272 20.3733 11.6843H14.701C15.9733 8.78119 17.6548 7.06889 19.2687 7.06889C19.2687 5.99965 19.461 4.99504 19.7979 4.03965C19.621 4.0335 19.4471 3.99196 19.2687 3.99196ZM12.9225 8.46273C12.3098 9.48597 11.7947 10.5646 11.3841 11.6843H8.30713C9.63419 10.3355 11.1989 9.24334 12.9225 8.46273ZM5.95174 14.7612H10.4687C10.0034 16.7822 9.72983 18.8426 9.65174 20.915H3.97944C4.18748 18.746 4.86016 16.6471 5.95174 14.7612ZM3.97944 23.992H9.65328C9.74405 26.1843 10.0271 28.2535 10.4702 30.1458H5.95174C4.86148 28.2593 4.1889 26.1608 3.97944 23.992ZM8.30713 33.2227H11.3841C11.8271 34.4166 12.3456 35.4889 12.9225 36.4443C11.1989 35.6637 9.63419 34.5715 8.30713 33.2227ZM14.701 33.2227H23.8364C22.5641 36.1258 20.8825 37.8381 19.2687 37.8381C17.6548 37.8381 15.9717 36.1258 14.701 33.2227ZM27.1533 33.2227H30.2302C28.9031 34.5715 27.3385 35.6637 25.6148 36.4443C26.1917 35.4904 26.7102 34.4181 27.1533 33.2227Z" fill="white"/>
</svg>
