<svg width="50" height="51" viewBox="0 0 50 51" fill="none" xmlns="http://www.w3.org/2000/svg">
<g clip-path="url(#clip0_35_170)">
<path d="M5.22103 36.8705C3.25067 38.2309 2.1384 40.7628 2.49096 43.1859C2.86148 45.6815 4.74352 47.915 7.17416 48.7444C8.26645 49.1171 9.52049 49.2322 10.8535 48.9963C11.7842 49.0675 17.9318 49.2083 17.9318 48.569C17.9318 48.2862 15.9213 48.0568 13.4328 48.0541C15.2707 46.9882 16.5147 45.3176 16.8633 43.1608C25.0432 44.6485 45.1902 44.9731 47.0473 45.0906C47.362 45.1056 47.5568 44.7609 47.3845 44.4912C46.8112 43.6166 46.4514 42.7561 45.8581 41.875C45.8598 41.8567 45.8684 41.8395 45.8683 41.8212L45.7715 22.244L48.4928 22.2207C48.8645 22.2175 49.2418 21.7554 49.0249 21.345L42.6227 9.2575C42.604 9.22304 42.5824 9.19072 42.5573 9.16093C41.0974 7.42076 27.7128 7.95948 25.4481 8.04596L25.3877 3.71201C25.4954 3.74231 25.6028 3.76528 25.7109 3.80024C25.9996 3.89575 26.3119 3.73526 26.4053 3.44552C26.4986 3.15543 26.3399 2.84486 26.0498 2.75116C23.742 2.00402 21.5741 2.21979 19.0308 2.77378C18.7328 2.8384 18.5439 3.13209 18.6093 3.42972C18.6653 3.68787 18.8936 3.86415 19.1471 3.86415C19.2237 3.86415 19.2545 3.85452 19.6431 3.77448L19.7899 8.43066C19.3647 8.4846 18.2326 8.61768 18.0298 8.92181L9.66511 21.6961C9.42618 22.0614 9.68797 22.5495 10.1268 22.5495H10.1318L12.765 22.527V35.0623C11.6185 34.5558 11.1779 34.5751 10.3745 34.5082C10.1071 33.674 9.833 32.9646 9.68019 32.3044C9.64644 32.1575 9.55381 32.0315 9.42456 31.9547C9.12713 31.7774 8.75754 31.5685 8.21032 31.2585C8.2406 31.3647 7.77039 29.7176 7.53821 28.904C7.77511 28.614 7.99539 28.2709 8.21965 28.0409C8.46447 27.7893 8.4171 27.3704 8.11123 27.1846C7.90141 27.0569 7.61144 26.8045 7.35798 26.6008C7.49032 26.4161 7.64033 26.1898 7.8082 26.0084C8.0156 25.7869 8.00346 25.4349 7.77805 25.2268C7.52397 24.9936 7.17076 24.6054 6.8539 24.2811C7.0155 23.9525 7.12168 23.633 7.28402 23.4166C7.46353 23.1778 7.41973 22.84 7.18636 22.654C6.72321 22.2853 6.23278 21.9359 5.73516 21.7927C5.57432 21.3646 5.38959 21.0384 5.26268 20.6452C5.22749 20.5379 5.16071 20.4435 5.07024 20.3752C4.24784 19.7552 3.54239 19.4185 2.78178 18.8519C2.65037 18.7542 2.48091 18.7194 2.3215 18.7585C2.16209 18.7973 2.02853 18.905 1.95673 19.0526C1.65329 19.6742 1.26256 20.623 0.980165 21.215C0.924156 21.3331 0.911949 21.4678 0.945698 21.5941C2.21658 26.3548 3.8327 32.2378 5.22103 36.8705ZM23.6501 41.4969C21.6775 41.4873 19.692 41.4686 17.6937 41.4435V29.8206H23.6501V41.4969ZM24.753 41.5001V29.2691C24.753 28.9647 24.506 28.7177 24.2015 28.7177H17.1423C16.8378 28.7177 16.5908 28.9647 16.5908 29.2691V39.0498C16.0625 37.6068 15.1267 36.5018 13.8679 35.6638V22.5175L22.3932 22.4444C29.2507 22.5573 38.0942 23.4279 44.6832 25.2154L44.7625 41.2992C38.0781 41.4588 31.4697 41.5231 24.753 41.5001ZM24.3019 3.47734C24.2599 3.71002 24.2894 2.93114 24.3456 8.09214C23.092 8.14949 21.897 8.22224 20.8903 8.31316L20.7408 3.57204C21.9867 3.37295 23.1505 3.30945 24.3019 3.47734ZM11.1529 21.4376L18.8642 9.66105C21.0376 9.02282 40.1536 8.47854 41.6842 9.84236L47.6599 21.1249L11.1529 21.4376ZM2.67622 20.1221C3.21251 20.4752 3.7513 20.7787 4.27247 21.1572C4.44184 21.6183 4.65846 21.9931 4.78445 22.4285C4.84979 22.6565 5.05372 22.817 5.29068 22.8274C5.51974 22.8371 5.85077 23.0371 6.12076 23.2292C5.97172 23.5408 5.8667 23.8428 5.71578 24.0485C5.5499 24.2754 5.58078 24.5906 5.7883 24.7805C6.03059 25.0026 6.31896 25.3204 6.6629 25.6752C6.49587 25.9024 6.34151 26.1462 6.16456 26.3506C5.94283 26.6053 6.00142 27.0011 6.29022 27.1803C6.48838 27.3032 6.76633 27.5439 7.02695 27.7547C6.85709 27.9806 6.70042 28.2062 6.53149 28.3795C6.39362 28.5202 6.34192 28.7238 6.39434 28.9133C6.44256 29.0824 7.26462 31.9639 7.21221 31.7802C7.25242 31.9173 7.34362 32.0337 7.46712 32.1048C7.54191 32.1472 8.48886 32.6849 8.66341 32.7866C8.92611 33.7842 9.30746 34.6347 9.60264 35.7809C9.68281 36.2118 10.0719 36.3896 10.386 36.2573C13.7884 36.5666 15.8684 39.3216 15.8261 41.9713C15.7297 46.6679 11.0909 48.9163 7.53031 47.7003C5.48025 47.0009 3.89334 45.1218 3.58242 43.0257C3.27652 40.9233 4.35505 38.6359 6.14733 37.5872C6.36706 37.4583 6.47046 37.1958 6.3965 36.952C4.9815 32.2507 3.33146 26.2527 2.063 21.5037C2.24785 21.1013 2.47412 20.5773 2.67622 20.1221Z" fill="#0D1820"/>
<path d="M22.5636 37.1515H22.5693C22.8738 37.1483 23.1179 36.8991 23.1151 36.5947L23.0971 34.8835C23.0935 34.5787 22.8135 34.3216 22.5392 34.3382C22.2347 34.3417 21.9906 34.5913 21.9942 34.8957L22.0121 36.6054C22.015 36.9085 22.2613 37.1515 22.5636 37.1515Z" fill="#0D1820"/>
<path d="M39.7777 25.56C36.7266 25.2462 33.3546 25.2286 29.7493 25.5097C29.4814 25.5305 29.2682 25.7413 29.243 26.0088C29.003 28.6286 29.4366 31.4899 29.2416 34.7077C29.2238 35.0106 29.4547 35.2745 29.7622 35.2919C33.1184 35.4748 36.5193 35.5036 39.8976 35.2416C40.1626 35.2211 40.3751 35.0154 40.4038 34.7515C40.7148 31.8804 40.6695 28.9474 40.2674 26.0332C40.2322 25.7815 40.0304 25.5862 39.7777 25.56ZM34.3714 34.3229C33.088 34.3176 31.7655 34.2877 30.3711 34.2191C30.4207 33.0004 30.388 31.8595 30.348 30.745L34.3714 30.87V34.3229ZM34.3714 26.454V29.7667L30.3116 29.6406C30.2733 28.5707 30.2478 27.5444 30.3065 26.5742C31.7053 26.4748 33.0592 26.4301 34.3776 26.4231C34.377 26.4339 34.3714 26.443 34.3714 26.454ZM39.2312 26.6148C39.3697 27.7179 39.4457 28.8227 39.4789 29.9253L35.4744 29.8009V26.454C35.4744 26.4447 35.4695 26.437 35.4691 26.4279C36.7671 26.4466 38.0285 26.5035 39.2312 26.6148ZM39.3533 34.176C38.1084 34.2624 36.8147 34.3075 35.4744 34.3214V30.9042L39.4929 31.029C39.4909 32.0829 39.452 33.1339 39.3533 34.176Z" fill="#0D1820"/>
<path d="M39.0374 12.4176C33.4487 11.7006 27.7746 11.6309 22.1687 12.2104C21.8657 12.2416 21.6452 12.5127 21.6768 12.8157C21.7084 13.1184 21.9741 13.3363 22.2822 13.3076C27.8033 12.7375 33.3934 12.8053 38.8967 13.5119C39.2067 13.5495 39.4759 13.3318 39.5142 13.0351C39.553 12.7328 39.339 12.4563 39.0374 12.4176Z" fill="#0D1820"/>
<path d="M27.8142 17.5752H20.9179C20.6135 17.5752 20.3665 17.8222 20.3665 18.1267C20.3665 18.4311 20.6135 18.6781 20.9179 18.6781H27.8142C28.1186 18.6781 28.3657 18.4311 28.3657 18.1267C28.3657 17.8222 28.1186 17.5752 27.8142 17.5752Z" fill="#0D1820"/>
<path d="M11.8767 46.5473C12.8662 45.9072 13.2711 44.5601 12.7987 43.4805C12.3707 42.5028 11.4595 41.965 10.4334 42.0695C9.31247 42.1855 8.36751 43.0396 8.13629 44.1465C7.71185 46.1808 10.1285 47.6791 11.8767 46.5473ZM10.5468 43.1667C11.0603 43.1124 11.5369 43.3487 11.7876 43.9221C12.0411 44.5001 11.8077 45.2785 11.2778 45.621C10.7479 45.965 9.94221 45.8576 9.51927 45.3912C8.74266 44.5337 9.48865 43.2762 10.5468 43.1667Z" fill="#0D1820"/>
</g>
<defs>
<clipPath id="clip0_35_170">
<rect width="50" height="50" fill="white" transform="translate(0.0078125 0.694824)"/>
</clipPath>
</defs>
</svg>
