<svg width="50" height="51" viewBox="0 0 50 51" fill="none" xmlns="http://www.w3.org/2000/svg">
<path d="M38.5337 16.9832C38.617 16.9651 38.6951 16.9527 38.7769 16.9361L38.7674 20.1353L31.5976 12.8099C31.3933 12.6006 31.0415 12.5775 30.8135 12.8056L14.3501 29.2685C14.1918 29.4269 14.1448 29.6653 14.2313 29.8717C14.3175 30.0767 14.5182 30.2099 14.7401 30.2099H14.7447L16.8669 30.1917V46.3982C16.8669 46.6991 17.1079 46.9443 17.4087 46.9497C17.5951 46.9529 17.7755 46.9539 17.9615 46.957C24.9366 48.6699 43.97 48.9385 45.7382 49.0455C46.0023 49.0616 46.1681 48.769 46.0233 48.5477C45.7513 48.1321 45.5351 47.7211 45.3101 47.3082L45.413 29.9471L46.9555 29.9338C47.3917 29.9302 47.7687 29.3325 47.3863 28.9415L44.1995 25.6854C44.1996 25.6111 44.0987 18.4991 44.1292 17.0913C44.3559 17.0846 44.5643 16.9401 44.6383 16.7118C44.7317 16.4221 44.573 16.1111 44.2829 16.0174C42.4755 15.4333 40.629 15.3985 38.2996 15.9054C38.002 15.9701 37.8131 16.2637 37.8778 16.5614C37.942 16.859 38.2336 17.0482 38.5337 16.9832ZM26.0071 45.9417C24.4104 45.9338 22.8051 45.9218 21.1821 45.9021V36.3152H26.0071V45.9417ZM27.1101 45.9469V35.7638C27.1101 35.4593 26.8631 35.2123 26.5586 35.2123H20.6307C20.3262 35.2123 20.0792 35.4593 20.0792 35.7638V45.8863C19.3773 45.8767 18.6776 45.8679 17.9699 45.8561V30.1823C20.5694 30.2844 32.3741 29.299 43.6669 32.3371L43.7321 45.7807C38.2491 45.9109 32.7477 45.9652 27.1101 45.9469ZM45.7448 28.8413L16.0828 29.0955L31.1991 13.9796L45.7448 28.8413ZM39.8677 21.0119C39.8885 21.0127 41.6279 21.0826 41.6487 21.0826C41.9431 21.0826 42.1876 20.85 42.1994 20.5531C42.2116 20.249 41.9747 19.9923 41.6702 19.9801L39.871 19.908L39.8748 18.6512C39.8955 18.652 41.6279 18.7217 41.6487 18.7217C41.9431 18.7217 42.1876 18.489 42.1994 18.1921C42.2116 17.888 41.9747 17.6313 41.6702 17.6191L39.8781 17.5473L39.8804 16.7518C40.8984 16.6228 41.8176 16.6251 42.6902 16.7656C42.6898 16.7741 42.6852 16.7814 42.6852 16.7901L42.6736 24.1263L39.859 21.2507C39.8601 21.2368 39.8657 21.0716 39.8677 21.0119Z" fill="#0D1820"/>
<path d="M25.1829 42.4709H25.1887C25.4931 42.4677 25.7376 42.2181 25.7344 41.9137L25.7197 40.4772C25.7164 40.1724 25.454 39.8949 25.1625 39.9315C24.858 39.9347 24.6135 40.1842 24.6167 40.4887L24.6315 41.9252C24.6347 42.2278 24.881 42.4709 25.1829 42.4709Z" fill="#0D1820"/>
<path d="M39.6457 32.5617C37.0808 32.2975 34.2416 32.2838 31.21 32.5194C30.9421 32.5402 30.7281 32.7509 30.7034 33.0184C30.5165 35.057 30.8556 37.7914 30.7023 40.3254C30.6836 40.6306 30.9168 40.8923 31.2225 40.9095C34.0459 41.0633 36.9026 41.0876 39.7452 40.8672C40.0098 40.8467 40.222 40.6406 40.2507 40.3771C40.5132 37.958 40.4744 35.4878 40.1358 33.0349C40.101 32.7832 39.8985 32.5879 39.6457 32.5617ZM35.0089 39.9187C33.987 39.9133 32.9365 39.8899 31.8304 39.8364C31.8663 38.8764 31.8419 37.9758 31.8111 37.0945L35.0089 37.1938V39.9187ZM35.0089 36.0905L31.7771 35.9901C31.7478 35.1546 31.7263 34.3448 31.7679 33.5839C32.8803 33.5067 33.9573 33.4719 35.0089 33.4642V36.0905ZM36.1118 33.4691C37.1407 33.486 38.1429 33.5303 39.0993 33.6169C39.2062 34.4854 39.2652 35.3552 39.2942 36.2237L36.1118 36.1248V33.4691ZM39.1998 39.8012C38.2082 39.8685 37.1771 39.9038 36.1118 39.9165V37.2281L39.309 37.3274C39.305 38.1555 39.2752 38.9816 39.1998 39.8012Z" fill="#0D1820"/>
<path d="M27.1235 22.4629C26.6976 23.6007 27.0718 24.9747 28.0332 25.8041C28.621 26.3103 29.3789 26.5731 30.1314 26.5731C30.6427 26.5731 31.1514 26.4514 31.6024 26.2026C32.7563 25.5657 33.3738 24.1439 33.0385 22.8956C32.6575 21.4785 31.2537 20.7852 30.0316 20.7267C28.6662 20.6606 27.5489 21.327 27.1235 22.4629Z" fill="#0D1820"/>
<path d="M12.0325 18.2012C14.5988 17.8165 16.8731 16.1976 18.0522 13.7733C20.4994 8.74131 17.4393 1.98458 11.014 1.99305C10.9642 1.98919 10.9156 1.97801 10.8658 1.97514C7.04929 1.74967 3.63204 4.23021 2.72836 7.86288C1.25111 13.7989 6.3752 19.0493 12.0325 18.2012ZM3.79899 8.12928C4.63912 4.75224 7.69949 3.06516 10.426 3.06516C10.552 3.06516 10.6777 3.06875 10.8019 3.07593C16.1917 3.39 18.1596 9.20456 16.167 13.2395C15.4617 14.6675 14.2605 15.8726 12.5392 16.532C7.55345 18.4432 2.42631 13.6432 3.79899 8.12928Z" fill="#0D1820"/>
<path d="M11.3812 11.0407C12.0601 11.8525 11.3894 13.2566 10.181 13.2139C9.66292 13.2049 9.13048 12.9245 8.75673 12.4635C8.56465 12.2258 8.21711 12.1896 7.98122 12.3824C7.74462 12.5741 7.70836 12.9213 7.90008 13.1579C8.36848 13.736 9.01604 14.1163 9.69259 14.2515L9.66615 14.8087C9.65179 15.1128 9.8866 15.3709 10.1911 15.3853C10.1997 15.3857 10.2086 15.386 10.2173 15.386C10.5099 15.386 10.754 15.1559 10.7677 14.8604L10.797 14.243C12.6952 13.7894 13.2859 11.5998 12.2278 10.3334C11.1817 9.08108 9.17389 9.48352 8.54382 8.5623C8.02066 7.79552 8.62881 6.49267 9.9304 6.40883C10.5404 6.3697 10.8567 6.5047 11.4782 7.06442C11.7047 7.26835 12.0533 7.25076 12.2569 7.02385C12.4608 6.79766 12.4425 6.44869 12.2163 6.24512C11.7062 5.78551 11.2524 5.4899 10.6818 5.36904C10.6665 5.2077 10.6675 5.0447 10.7034 4.8869C10.7709 4.58999 10.5849 4.2945 10.288 4.22665C9.99072 4.16095 9.69523 4.34549 9.62774 4.64205C9.57478 4.87551 9.56553 5.11588 9.57743 5.35562C7.57551 5.66857 6.686 7.79735 7.63332 9.1845C8.60375 10.6044 10.6258 10.1356 11.3812 11.0407Z" fill="#0D1820"/>
<path d="M13.1004 37.2052C13.3907 37.2837 13.696 37.1128 13.7757 36.8156C13.8547 36.5216 13.6806 36.2193 13.3861 36.1403C8.86498 34.9256 5.99834 30.1788 6.99792 25.3168L9.11584 25.5388C9.57851 25.5825 9.87392 25.0907 9.64757 24.7091C9.05624 23.7114 8.47425 22.3532 8.09045 21.075C7.97669 20.6968 7.51338 20.5582 7.21154 20.8082C5.88177 21.9045 4.7762 22.9006 3.44245 24.0007C3.06615 24.3109 3.24994 24.9235 3.73577 24.9748L5.89983 25.2017C4.84051 30.643 8.08432 35.8585 13.1004 37.2052Z" fill="#0D1820"/>
<path d="M21.3954 5.42756C25.4255 3.04651 30.8249 4.31899 33.5986 8.43539L31.9585 9.79301C31.61 10.0808 31.7385 10.6457 32.1789 10.7534C33.3059 11.0292 34.6835 11.5638 35.8647 12.1834C36.2151 12.3665 36.6376 12.1329 36.6704 11.7422C36.8174 10.0245 36.8808 8.51409 37.0262 6.81558C37.068 6.32864 36.5008 6.03291 36.1254 6.34381L34.4493 7.73115C31.3047 3.17045 25.3088 1.83413 20.8346 4.47829C20.5722 4.63303 20.4853 4.97124 20.6404 5.23333C20.7955 5.4965 21.1344 5.58267 21.3954 5.42756Z" fill="#0D1820"/>
</svg>
