<svg width="50" height="51" viewBox="0 0 50 51" fill="none" xmlns="http://www.w3.org/2000/svg">
<path d="M23.9019 15.5497C22.7702 15.8492 21.8174 16.7209 21.3542 17.8813C20.6803 19.5641 20.9223 21.3946 20.8609 25.5128C20.8566 25.8151 21.0964 26.0643 21.3987 26.0722C24.1075 26.1366 25.9518 25.932 28.5851 25.9954C28.8766 25.9903 29.1394 25.7656 29.1502 25.464C29.0112 20.6444 29.3298 14.1066 23.9019 15.5497ZM21.9696 24.9793C21.9994 21.4627 21.8422 19.6306 22.3782 18.2906C22.7128 17.4526 23.3885 16.8264 24.1848 16.6153C25.4552 16.2766 26.4042 17.8645 26.8028 19.1163C27.693 21.9123 27.4455 23.7319 27.5462 24.8857C25.4306 24.8859 23.9744 24.9968 21.9696 24.9793Z" fill="#0D1820"/>
<path d="M15.2199 38.538C15.4634 38.6807 15.8081 38.9074 17.3138 38.7038C18.4847 38.5532 18.6992 39.1085 18.2752 39.6689C18.0785 39.9296 17.7532 40.1048 17.3827 40.1493C17.0158 40.1938 16.656 40.1019 16.4018 39.8958C16.1663 39.7041 15.8195 39.7393 15.6263 39.9762C15.4339 40.2125 15.4698 40.56 15.7067 40.7518C16.2139 41.1643 16.8879 41.3217 17.5155 41.2443C18.1812 41.1639 18.7786 40.8322 19.1556 40.3338C20.1235 39.0538 19.4093 37.3249 17.1745 37.6095C16.601 37.6872 16.1005 37.7758 15.78 37.588C15.2097 37.2504 15.3401 36.2155 16.3451 35.8359C16.7422 35.6866 17.2297 35.6557 17.7977 35.749C18.1 35.7979 18.3815 35.5932 18.4303 35.2931C18.4792 34.9929 18.2752 34.7093 17.9744 34.6604C17.2175 34.5369 16.5368 34.585 15.9559 34.8041C14.0624 35.5189 13.8706 37.7404 15.2199 38.538Z" fill="#0D1820"/>
<path d="M21.0182 40.012C21.3 40.1035 21.6169 39.9478 21.7097 39.6522L22.2513 37.937C22.3877 37.9775 22.5236 37.9641 22.6439 37.9073C22.972 37.7515 23.3318 37.6589 23.6851 37.6395C23.9888 37.6223 24.2214 37.3623 24.2049 37.0579C24.2014 36.9961 24.1819 36.9398 24.1602 36.885C24.5615 37.5517 24.9452 38.2299 25.3007 38.9227C25.44 39.1948 25.7717 39.3018 26.0424 39.1618C26.3139 39.0232 26.4209 38.6907 26.2816 38.42C25.4321 36.762 24.4484 35.1672 23.3591 33.6794C23.0861 33.3075 22.5214 33.4171 22.3882 33.8395L20.6584 39.3205C20.5665 39.6106 20.7274 39.9208 21.0182 40.012ZM23.1056 35.2311C23.4332 35.711 23.7414 36.2068 24.0456 36.7051C23.9384 36.5933 23.7902 36.5239 23.6233 36.538C23.2828 36.557 22.952 36.6375 22.6275 36.7453L23.1056 35.2311Z" fill="#0D1820"/>
<path d="M27.9884 37.9304C28.0301 38.2012 28.2627 38.3986 28.5327 38.3986C29.3329 38.3986 30.4709 38.0044 31.5672 38.1258C31.8731 38.1523 32.1417 37.9383 32.1747 37.636C32.207 37.333 31.988 37.0616 31.685 37.0286C30.6675 36.922 29.8578 37.1343 29.0095 37.2454C28.8488 35.8643 28.8423 34.3785 28.6304 32.9959C28.5844 32.6951 28.2993 32.4904 28.0021 32.5342C27.7005 32.5802 27.4944 32.8617 27.5403 33.1625C27.7662 34.6377 27.7521 36.3887 27.9884 37.9304Z" fill="#0D1820"/>
<path d="M32.8511 37.389C32.8511 37.6439 33.0248 37.8651 33.2726 37.9247C34.3398 38.1963 35.4521 38.5064 36.4285 38.5178H36.4349C36.7365 38.5178 36.9828 38.2751 36.9864 37.9728C36.99 37.6683 36.7458 37.4184 36.4414 37.4148C35.6636 37.4057 34.758 37.1638 33.9605 36.9603C33.9771 36.4209 34.0238 35.8697 34.0727 35.3245C34.8543 35.6345 35.684 35.723 36.4651 35.6104C36.7667 35.568 36.9763 35.2887 36.9333 34.9871C36.8909 34.6855 36.613 34.4651 36.31 34.5189C35.6831 34.6072 35.0412 34.529 34.4552 34.2906C34.359 34.252 34.2602 34.2515 34.1644 34.2668C34.1986 33.8591 34.2292 33.4494 34.2441 33.0397C35.2214 32.9923 36.2001 33.039 37.1659 33.179C37.4625 33.2214 37.7475 33.0146 37.7906 32.7123C37.8344 32.4107 37.6255 32.1314 37.3239 32.0876C36.1814 31.9224 35.0203 31.8786 33.8621 31.9576C33.5384 31.8589 32.872 32.0991 32.9767 32.6426C32.9997 32.7618 33.06 32.8659 33.1433 32.9435C33.0962 34.3938 32.8498 35.9086 32.8511 37.389Z" fill="#0D1820"/>
<path d="M10.8882 44.6371C10.9895 45.643 11.9388 46.4371 13.1044 46.4371H22.6424C22.9469 46.4371 23.1939 46.1901 23.1939 45.8857V41.9349C24.8553 41.366 26.5243 40.8399 28.2262 40.4946C28.2273 40.4945 28.2285 40.4943 28.2297 40.4941L28.1816 45.8735C28.1816 45.8744 28.1821 45.8751 28.1821 45.876C28.1821 45.8769 28.1816 45.8776 28.1816 45.8785C28.1816 46.1421 28.4373 46.4271 28.728 46.43C31.7586 47.1939 47.7443 47.0854 47.7443 46.2241C47.7443 45.8629 44.1986 45.5643 39.5651 45.5094C40.2553 44.5908 40.4032 42.8791 40.3119 41.7263C42.4199 42.5463 44.4718 43.6137 46.5045 44.8071C47.1566 44.4133 47.4653 44.2563 47.6087 44.1327C47.8471 43.9639 47.8956 43.7244 47.8148 43.5075C47.5274 42.7307 47.1619 41.982 46.7586 41.252C47.3102 40.9357 48.0801 40.5054 48.5655 40.4113C48.5655 40.1015 48.477 39.7919 48.4489 39.4822C48.5581 39.2512 48.5148 39.0537 48.3849 38.8997C47.6268 37.9981 46.7776 37.1822 45.8551 36.4541C46.4553 35.8374 47.1823 35.0429 47.7821 34.4265C47.6878 34.239 47.5936 34.0515 47.4993 33.8639C47.5131 33.8178 47.5392 33.7762 47.5405 33.7267C47.5455 33.5257 47.4407 33.3376 47.2669 33.2363C45.142 31.998 42.7809 31.0861 40.2568 30.48V26.8633L41.037 27.7848C41.1347 27.9004 41.2754 27.9708 41.4262 27.9794C44.4611 28.1539 43.0645 28.1197 46.2092 28.3327C46.4433 28.3456 46.6407 28.2271 46.7406 28.0282C46.7805 27.9479 46.7937 27.8613 46.7925 27.7753C46.9764 27.3924 47.0572 27.0638 47.3418 26.6278C44.2746 23.3227 41.3297 20.0233 38.4832 16.7626L38.4156 10.1192C38.6604 10.063 38.8469 9.85392 38.8469 9.59201C38.8469 9.28755 38.5999 9.04054 38.2954 9.04054H33.4622C33.1577 9.04054 32.9107 9.28755 32.9107 9.59201C32.9107 9.89646 33.1577 10.1435 33.4622 10.1435H33.5342L33.5276 11.0174C31.9115 9.1224 30.3258 7.24754 28.7738 5.4041C28.2698 4.80559 27.7092 4.22648 27.0063 3.8828C26.1923 3.48472 24.4858 3.49714 23.7152 4.36883L3.31584 27.4171C2.99495 27.7783 3.26366 28.3622 3.76535 28.3327L9.03807 27.9787C9.18814 27.9686 9.32673 27.8982 9.42295 27.7841L10.7595 26.1973L10.8029 33.2739C8.34518 33.0446 5.91715 32.1619 3.90824 30.7432C3.54572 30.484 3.03554 30.7477 3.03867 31.1963C3.04585 32.4227 3.20311 33.4402 3.52695 34.317C3.24985 34.2692 2.77661 34.212 2.42904 34.0944C2.04159 33.9627 1.64191 34.2924 1.70882 34.7047C1.9544 36.2263 2.65523 37.5483 3.39698 38.812C2.84116 38.9131 2.2117 39.0012 1.71959 39.2888C1.48951 39.4234 1.36556 39.7189 1.51616 40.0127C1.63836 40.574 1.76052 41.1352 1.88273 41.6965C4.54606 43.4724 7.69458 44.4772 10.8882 44.6371ZM22.091 45.3342H13.1044C12.5815 45.3342 12.1304 45.0441 12.0073 44.6641C12.4208 44.6587 12.8346 44.6475 13.247 44.6127C16.2893 44.3555 19.1891 43.3276 22.091 42.3163V45.3342ZM38.5848 44.456C38.5848 44.9285 38.0657 45.327 37.451 45.327H29.2895L29.3339 40.371C31.209 40.1961 33.0159 40.1548 34.7051 40.2611C35.7022 40.3211 37.5133 40.7807 38.5848 41.1179V44.456ZM34.6372 10.1435H37.3128L37.3671 15.4823C36.4402 14.4141 35.5264 13.3525 34.621 12.2955L34.6372 10.1435ZM8.73074 26.8944L5.03201 27.1421L24.541 5.09982C24.8976 4.69782 25.5031 4.74312 25.8177 5.10628C32.9718 13.3419 37.7976 18.8972 44.9555 27.1371C43.2323 27.004 44.1611 27.0338 41.7256 26.8915L26.6787 9.12168C25.8997 8.20113 24.4754 8.20089 23.6973 9.12527L8.73074 26.8944ZM38.5848 24.8889V30.1252C31.9503 28.9397 26.1595 30.0067 20.1493 31.7808C17.3122 32.6177 14.7461 33.3733 11.9063 33.3379L11.855 24.975C11.8548 24.9528 11.8447 24.9339 11.842 24.9123L23.1277 11.514C23.9214 11.1197 24.7958 10.9757 25.5716 11.2341C27.6189 11.916 38.5188 24.8129 38.5848 24.8889ZM4.43314 39.6996C4.76187 39.587 4.90955 39.1999 4.72899 38.8953C4.05557 37.7657 3.34801 36.6013 2.98338 35.3474C3.46667 35.4274 3.97316 35.4877 4.33118 35.6109C4.8202 35.7771 5.24912 35.24 4.98031 34.801C4.55306 34.1044 4.29671 33.2772 4.19403 32.2447C9.77365 35.5936 14.644 34.5549 20.4617 32.8385C29.1468 30.2761 37.8937 29.495 45.8968 33.7368C45.1795 34.2394 44.465 34.9022 43.8518 35.6404C43.6425 35.893 43.6979 36.2744 43.9753 36.4554C45.1063 37.1921 46.1381 38.0631 47.0493 39.0519C45.9368 39.5403 45.6191 39.6787 45.3396 39.7994C45.0202 39.9385 44.9101 40.3307 45.1012 40.6129C45.5177 41.2341 45.8889 41.8818 46.2113 42.5503C42.7798 40.7596 38.5495 39.3855 34.7726 39.1596C22.1505 38.3767 14.6452 45.1556 6.51121 42.0261C5.24886 41.5328 3.80053 40.7716 2.95825 40.0155C3.44539 39.911 3.9805 39.854 4.43314 39.6996Z" fill="#0D1820"/>
</svg>
