<svg width="46" height="41" viewBox="0 0 46 41" fill="none" xmlns="http://www.w3.org/2000/svg">
<path d="M45.1253 14.9457H32.0295C31.8044 14.9457 31.6202 15.1297 31.6202 15.3547V17.8083C31.6202 18.0332 31.8044 18.2172 32.0295 18.2172H45.1253C45.3503 18.2172 45.5345 18.0332 45.5345 17.8083V15.3547C45.5345 15.1297 45.3503 14.9457 45.1253 14.9457ZM38.2704 21.8977H32.0295C31.8044 21.8977 31.6202 22.0817 31.6202 22.3066V24.7602C31.6202 24.9851 31.8044 25.1692 32.0295 25.1692H38.2704C38.4955 25.1692 38.6797 24.9851 38.6797 24.7602V22.3066C38.6797 22.0817 38.4955 21.8977 38.2704 21.8977ZM21.1998 10.3707H18.9848C18.6676 10.3707 18.4119 10.6263 18.4119 10.9432V23.6203C18.4119 23.8043 18.4988 23.973 18.6472 24.0804L26.2642 29.6317C26.52 29.8157 26.8781 29.7646 27.0623 29.509L28.377 27.7148V27.7097C28.5611 27.4541 28.5048 27.0963 28.2491 26.9123L21.7677 22.2299V10.9432C21.7728 10.6263 21.5119 10.3707 21.1998 10.3707Z" fill="white"/>
<path d="M37.9523 28.3331H34.9955C34.7091 28.3331 34.4379 28.4814 34.2845 28.7267C33.6348 29.7542 32.8777 30.705 32.0081 31.5739C30.5092 33.0717 28.7648 34.2474 26.826 35.0653C24.8156 35.9138 22.6824 36.3432 20.4827 36.3432C18.2779 36.3432 16.1448 35.9138 14.1395 35.0653C12.2007 34.2474 10.4563 33.0717 8.95742 31.5739C7.45856 30.0762 6.28199 28.3331 5.4635 26.3958C4.61432 24.392 4.18461 22.2604 4.18461 20.0572C4.18461 17.8541 4.61432 15.7276 5.4635 13.7187C6.28199 11.7814 7.45856 10.0383 8.95742 8.54054C10.4563 7.04281 12.2007 5.86711 14.1395 5.04924C16.1448 4.20069 18.2831 3.77131 20.4827 3.77131C22.6875 3.77131 24.8207 4.20069 26.826 5.04924C28.7648 5.86711 30.5092 7.04281 32.0081 8.54054C32.8777 9.40954 33.6348 10.3603 34.2845 11.3878C34.4379 11.6331 34.7091 11.7814 34.9955 11.7814H37.9523C38.3053 11.7814 38.5304 11.4133 38.3718 11.1015C35.0365 4.47161 28.2737 0.162433 20.7232 0.0755338C9.66848 -0.0624826 0.486073 8.98015 0.465611 20.0164C0.445149 31.073 9.4127 40.0441 20.4776 40.0441C28.1254 40.0441 35.0007 35.7196 38.3718 29.013C38.5304 28.7012 38.3002 28.3331 37.9523 28.3331Z" fill="white"/>
</svg>
