<svg width="31" height="31" viewBox="0 0 31 31" fill="none" xmlns="http://www.w3.org/2000/svg">
<g clip-path="url(#clip0_35_824)">
<path d="M15.9527 0.679688C7.99974 0.679688 1.55273 7.12669 1.55273 15.0797C1.55273 23.0327 7.99974 29.4797 15.9527 29.4797C23.9057 29.4797 30.3527 23.0327 30.3527 15.0797C30.3527 7.12669 23.9057 0.679688 15.9527 0.679688ZM21.8102 12.4757C21.8162 12.5987 21.8177 12.7217 21.8177 12.8417C21.8177 16.5917 18.9662 20.9132 13.7492 20.9132C12.2077 20.9158 10.6982 20.473 9.40224 19.6382C9.62274 19.6652 9.84924 19.6757 10.0787 19.6757C11.4077 19.6757 12.6302 19.2242 13.6007 18.4622C13.0093 18.4506 12.4362 18.2547 11.9614 17.902C11.4866 17.5492 11.1336 17.0571 10.9517 16.4942C11.3765 16.575 11.814 16.558 12.2312 16.4447C11.5893 16.3149 11.012 15.9671 10.5973 15.4602C10.1826 14.9533 9.9559 14.3186 9.95574 13.6637V13.6292C10.3382 13.8407 10.7762 13.9697 11.2412 13.9847C10.6394 13.5841 10.2134 12.9687 10.0503 12.2644C9.88719 11.5601 9.99931 10.8201 10.3637 10.1957C11.0762 11.0717 11.9646 11.7883 12.9716 12.2992C13.9786 12.81 15.0816 13.1037 16.2092 13.1612C16.0659 12.5526 16.1276 11.9138 16.3848 11.3439C16.6419 10.7741 17.0802 10.3052 17.6313 10.0101C18.1825 9.71499 18.8157 9.61027 19.4326 9.71219C20.0494 9.81412 20.6153 10.117 21.0422 10.5737C21.677 10.4481 22.2857 10.2153 22.8422 9.88519C22.6307 10.5424 22.1877 11.1005 21.5957 11.4557C22.158 11.388 22.707 11.2368 23.2247 11.0072C22.8445 11.577 22.3654 12.0743 21.8102 12.4757Z" fill="#0D1820"/>
</g>
<defs>
<clipPath id="clip0_35_824">
<rect width="30" height="30" fill="white" transform="translate(0.953125 0.0800781)"/>
</clipPath>
</defs>
</svg>
