<svg width="50" height="51" viewBox="0 0 50 51" fill="none" xmlns="http://www.w3.org/2000/svg">
<path d="M21.0477 45.2612C24.7516 48.5826 27.3848 50.127 32.4147 47.3008C39.0376 43.5794 45.191 31.4544 47.5609 24.2036C48.3631 21.7491 48.899 19.2037 48.8014 16.6234C48.7319 14.7887 48.1616 13.0896 47.0542 11.6063C46.6251 11.0315 46.1397 10.6918 45.366 10.2463C43.7332 9.3062 40.2196 9.51029 38.2654 4.5271C37.5294 2.71112 35.763 1.51699 33.7617 1.48467C28.5612 1.42461 24.615 1.36497 19.3488 1.61105C17.5465 1.69076 15.9517 2.70897 15.1876 4.26788C13.8771 6.95454 11.6014 9.38467 8.64684 9.8508C7.01827 10.1165 5.82055 11.6287 5.92036 13.2932C6.65924 25.478 12.314 37.4286 21.0477 45.2612ZM8.82204 10.9401C12.149 10.4142 14.7066 7.7689 16.1786 4.75257C16.7645 3.557 17.9981 2.77503 19.3991 2.71256C24.8917 2.45693 28.8217 2.53989 33.7474 2.58761C35.3012 2.61275 36.6735 3.53617 37.2407 4.93495C38.5531 8.28159 41.5596 10.5051 43.8146 11.0564C44.9168 11.3264 45.6399 12.3633 45.4956 13.4684V13.472C43.7608 27.4477 39.3699 37.1472 28.8265 46.2471C26.7794 48.0136 25.8622 48.0955 21.7845 44.4398C13.2618 36.7967 7.7428 25.1283 7.02186 13.2271C6.95508 12.1199 7.74711 11.1153 8.82204 10.9401Z" fill="#0D1820"/>
<path d="M28.1406 18.8834H28.1542C28.4501 18.8834 28.6949 18.6494 28.7057 18.3521C28.7705 16.8396 28.8504 14.5174 27.6538 13.554C27.3127 13.2797 26.7124 13.0047 25.7976 13.2474C24.4731 13.5979 24.1614 14.7679 24.1403 16.1369L24.108 18.3614C24.1037 18.6644 24.3435 18.9136 24.6458 18.9215C25.9334 18.9528 26.9505 18.8504 28.1406 18.8834ZM25.2439 16.1211C25.2543 15.3642 25.3016 14.5207 26.0805 14.313C26.3851 14.2326 26.7155 14.2142 26.9623 14.4135C27.6559 14.9714 27.6581 16.7881 27.625 17.7748C26.7918 17.7748 26.0383 17.8229 25.2188 17.8243L25.2439 16.1211Z" fill="#0D1820"/>
<path d="M25.4107 29.935V25.4557L28.344 25.5146C28.3136 27.7406 28.283 30.0413 28.283 29.9321C28.283 30.2369 28.5593 30.4798 28.8266 30.4836H28.8345H34.5244C35.4342 30.4836 36.1738 29.8193 36.1738 29.0029V20.1246L36.718 20.7675C36.8157 20.8831 36.9564 20.9535 37.1072 20.9621C39.106 21.0771 38.2025 21.0563 40.2272 21.1926C40.7266 21.2203 40.997 20.6464 40.681 20.2806L35.3962 14.1971L35.3462 9.24081C35.5107 9.1454 35.6266 8.97468 35.6266 8.77084C35.6266 8.46638 35.3796 8.21937 35.0751 8.21937H31.9207C31.6162 8.21937 31.3692 8.46638 31.3692 8.77084C31.3692 9.02351 31.5428 9.2277 31.7747 9.29287L31.7694 10.0221L27.6195 5.24516C27.0342 4.57341 25.9978 4.5764 25.4158 5.23511L12.1022 20.277C11.7859 20.6331 12.0377 21.2122 12.5517 21.1926L15.9934 20.9614C16.1435 20.9513 16.282 20.8809 16.3783 20.7668L16.9178 20.1262L16.9829 29.0058C16.9829 29.8222 17.7225 30.4864 18.6323 30.4864H24.8593C25.1637 30.4864 25.4107 30.2394 25.4107 29.935ZM32.8775 9.32231H34.244L34.2802 12.9124L32.863 11.2812L32.8775 9.32231ZM15.686 19.8771L13.8184 20.002L26.2415 5.96609C26.3857 5.80317 26.6431 5.80236 26.7865 5.96897C31.0253 10.8484 34.3297 14.6523 38.9677 19.9913C38.5635 19.9541 38.5085 19.9401 37.4067 19.8742L27.6396 8.34C27.0553 7.64878 25.9862 7.64779 25.4014 8.34287L15.686 19.8771ZM24.3078 24.8935V29.3835H18.6323C18.3414 29.3835 18.0858 29.2068 18.0858 29.0015L18.0113 18.8281L26.2451 9.05304C26.3903 8.88132 26.6543 8.88223 26.798 9.05232L35.0708 18.8222V29.0029C35.0708 29.204 34.8152 29.3806 34.5244 29.3806H29.3937L29.4549 24.9818C29.4592 24.678 29.2179 24.4289 28.9142 24.4224L24.87 24.342C24.5582 24.3389 24.3078 24.5859 24.3078 24.8935Z" fill="#0D1820"/>
<path d="M35.4763 31.7048C32.202 34.3934 28.2252 37.431 25.4479 40.7208L21.3866 35.8459C21.1905 35.6111 20.8437 35.5795 20.6096 35.7755C20.3762 35.9701 20.3439 36.3184 20.5392 36.5524L25.0271 41.9393C25.2504 42.207 25.6646 42.2031 25.8816 41.93C28.5809 38.5454 32.8176 35.3122 36.1757 32.5579C36.4113 32.3647 36.4457 32.0172 36.2526 31.7817C36.0587 31.5461 35.7112 31.5124 35.4763 31.7048Z" fill="#0D1820"/>
<path d="M1.60908 9.33235L4.53517 10.1287C4.83432 10.2091 5.13275 10.0308 5.21159 9.74093C5.29129 9.44724 5.11824 9.14422 4.82383 9.06452L1.89917 8.26819C1.59974 8.18776 1.30174 8.36153 1.22204 8.65522C1.14234 8.94891 1.31539 9.25193 1.60908 9.33235Z" fill="#0D1820"/>
<path d="M6.33833 8.29889C6.77831 8.29889 7.04769 7.79856 6.78855 7.43004L4.93309 4.79332C4.75788 4.54415 4.41465 4.48311 4.16476 4.65976C3.91559 4.83496 3.85599 5.17892 4.0312 5.42808L5.88667 8.0648C5.99366 8.21703 6.16456 8.29889 6.33833 8.29889Z" fill="#0D1820"/>
<path d="M8.0903 3.20301C7.79087 3.25973 7.59412 3.5484 7.65157 3.84711L8.04219 5.89789C8.09246 6.16214 8.32367 6.34596 8.58289 6.34596C8.93162 6.34596 9.19 6.02892 9.12503 5.69109L8.7344 3.64174C8.67768 3.34159 8.38471 3.13982 8.0903 3.20301Z" fill="#0D1820"/>
</svg>
